<?xml version="1.0" encoding="utf-8"?>
<!-- Generator: Adobe Illustrator 22.0.0, SVG Export Plug-In . SVG Version: 6.00 Build 0)  -->
<svg version="1.1" id="Capa_1" xmlns="http://www.w3.org/2000/svg" xmlns:xlink="http://www.w3.org/1999/xlink" x="0px" y="0px"
	 viewBox="0 0 512 408" style="enable-background:new 0 0 512 408;" xml:space="preserve">
<style type="text/css">
	.st0{fill:url(#SVGID_1_);}
	.st1{fill:url(#SVGID_2_);stroke:#FFFFFF;}
	.st2{fill:#CD6799;}
</style>
<linearGradient id="SVGID_1_" gradientUnits="userSpaceOnUse" x1="27.6718" y1="387.6195" x2="267.8208" y2="196.9892" gradientTransform="matrix(1 0 0 -1 0 410)">
	<stop  offset="0" style="stop-color:#9013FE"/>
	<stop  offset="1" style="stop-color:#6610F2"/>
</linearGradient>
<path class="st0" d="M30.3,28.6C29.8,13.7,41.4,0,57.1,0h160.7c15.7,0,27.3,13.7,26.8,28.6c-0.5,14.3,0.1,32.8,4.8,47.9
	c4.7,15.2,12.6,24.7,25.5,26v14c-12.9,1.2-20.8,10.8-25.5,26c-4.7,15.1-5.3,33.6-4.8,47.9c0.5,14.9-11.1,28.6-26.8,28.6H57.1
	c-15.7,0-27.3-13.7-26.8-28.6c0.5-14.3-0.1-32.8-4.8-47.9c-4.7-15.2-12.6-24.7-25.5-26v-14c12.9-1.2,20.8-10.8,25.5-26
	C30.2,61.5,30.8,42.9,30.3,28.6z"/>
<linearGradient id="SVGID_2_" gradientUnits="userSpaceOnUse" x1="101.5275" y1="349.7113" x2="155.2072" y2="258.9272" gradientTransform="matrix(1 0 0 -1 0 410)">
	<stop  offset="0" style="stop-color:#FFFFFF"/>
	<stop  offset="1" style="stop-color:#F1E5FC"/>
</linearGradient>
<path class="st1" d="M143.4,167.7c25.4,0,40.7-12.4,40.7-32.9c0-15.5-10.9-26.7-27.1-28.5v-0.6c11.9-1.9,21.3-13,21.3-25.3
	c0-17.6-13.9-29.1-35.1-29.1H95.5v116.5H143.4z M114,66h24.6c13.4,0,21,6,21,16.8c0,11.5-8.8,18-24.9,18H114
	C114,100.8,114,66,114,66z M114,152.9v-38.3h24.5c17.5,0,26.6,6.5,26.6,19c0,12.6-8.8,19.3-25.6,19.3H114z"/>
<path class="st2" d="M466,301.2c-9.9,0.1-18.5,2.4-25.7,6c-2.6-5.2-5.3-9.9-5.8-13.3c-0.5-4-1.1-6.4-0.5-11.2
	c0.6-4.8,3.4-11.6,3.4-12.1c-0.1-0.5-0.6-3-6.3-3c-5.7-0.1-10.6,1.1-11.2,2.6c-0.6,1.5-1.7,4.9-2.4,8.5c-1,5.2-11.4,23.7-17.4,33.4
	c-1.9-3.8-3.6-7.1-3.9-9.7c-0.5-4-1.1-6.4-0.5-11.2c0.6-4.8,3.4-11.6,3.4-12.1c-0.1-0.5-0.6-3-6.3-3c-5.7-0.1-10.6,1.1-11.2,2.6
	c-0.6,1.5-1.2,5-2.4,8.5s-15,34.3-18.7,42.3c-1.9,4.1-3.5,7.4-4.6,9.6l0,0c0,0-0.1,0.2-0.2,0.4c-1,1.9-1.6,3-1.6,3s0,0,0,0.1
	c-0.8,1.4-1.6,2.7-2,2.7c-0.3,0-0.9-3.7,0.1-8.8c2.1-10.7,7-27.4,6.9-28c0-0.3,0.9-3.2-3.2-4.7c-4-1.5-5.5,1-5.9,1
	c-0.4,0-0.6,0.9-0.6,0.9s4.5-18.8-8.6-18.8c-8.2,0-19.5,9-25.1,17.1c-3.5,1.9-11,6-19.1,10.4c-3.1,1.7-6.2,3.4-9.2,5
	c-0.2-0.2-0.4-0.5-0.6-0.7c-15.9-17-45.2-28.9-44-51.7c0.5-8.3,3.3-30.1,56.4-56.5c43.7-21.5,78.4-15.6,84.4-2.3
	c8.6,18.9-18.6,53.9-63.7,59c-17.2,1.9-26.2-4.7-28.5-7.2c-2.4-2.6-2.7-2.7-3.6-2.2c-1.5,0.8-0.5,3.1,0,4.5
	c1.3,3.5,6.9,9.7,16.3,12.8c8.3,2.7,28.5,4.2,52.9-5.2c27.3-10.6,48.7-40,42.4-64.6c-6.3-25-47.8-33.2-87-19.3
	c-23.3,8.3-48.6,21.4-66.8,38.4c-21.6,20.2-25,37.8-23.6,45.2c5,26.1,41.1,43.1,55.5,55.7c-0.7,0.4-1.4,0.8-2,1.1
	c-7.2,3.6-34.7,17.9-41.5,33.1c-7.8,17.2,1.2,29.6,7.2,31.2c18.5,5.1,37.5-4.1,47.8-19.3c10.2-15.2,9-35.1,4.3-44.1
	c-0.1-0.1-0.1-0.2-0.2-0.3c1.9-1.1,3.8-2.2,5.7-3.3c3.7-2.2,7.3-4.2,10.4-5.9c-1.8,4.8-3.1,10.6-3.7,18.9
	c-0.8,9.7,3.2,22.4,8.5,27.4c2.3,2.2,5.1,2.2,6.8,2.2c6.1,0,8.9-5.1,11.9-11.1c3.7-7.4,7.1-15.9,7.1-15.9s-4.2,23.1,7.2,23.1
	c4.1,0,8.3-5.4,10.2-8.1c0,0.1,0,0.1,0,0.1s0.1-0.2,0.3-0.5c0.4-0.7,0.7-1.1,0.7-1.1s0-0.1,0-0.1c1.7-2.9,5.4-9.5,10.9-20.4
	c7.2-14.1,14.1-31.7,14.1-31.7s0.6,4.3,2.7,11.5c1.2,4.2,3.8,8.8,5.9,13.3c-1.7,2.3-2.7,3.6-2.7,3.6s0,0,0.1,0.1
	c-1.3,1.8-2.8,3.7-4.4,5.5c-5.7,6.7-12.4,14.5-13.3,16.7c-1.1,2.6-0.8,4.6,1.2,6.1c1.5,1.1,4.2,1.3,6.9,1.1
	c5.1-0.4,8.7-1.6,10.4-2.4c2.7-1,6-2.5,9-4.7c5.5-4.1,8.9-10,8.6-17.7c-0.2-4.3-1.6-8.5-3.3-12.5c0.5-0.7,1-1.5,1.5-2.2
	c8.8-12.8,15.6-26.9,15.6-26.9s0.6,4.3,2.7,11.5c1,3.6,3.2,7.6,5,11.4c-8.2,6.7-13.3,14.5-15.1,19.6c-3.3,9.4-0.7,13.7,4.1,14.7
	c2.2,0.5,5.3-0.6,7.6-1.6c2.9-0.9,6.3-2.5,9.6-4.9c5.5-4.1,10.9-9.8,10.6-17.5c-0.2-3.5-1.1-7-2.4-10.4c7-2.9,16-4.5,27.5-3.2
	c24.7,2.9,29.6,18.3,28.6,24.8s-6.1,10-7.8,11.1c-1.7,1.1-2.3,1.5-2.1,2.2c0.2,1.1,1,1.1,2.5,0.9c2-0.4,13-5.2,13.4-17.2
	C506.2,317.7,491.7,301.1,466,301.2z M275.6,365.4c-8.2,8.9-19.6,12.3-24.5,9.4c-5.3-3.1-3.2-16.2,6.8-25.7
	c6.1-5.8,14-11.1,19.2-14.4c1.2-0.7,3-1.8,5.1-3.1c0.4-0.2,0.6-0.3,0.6-0.3l0,0c0.4-0.3,0.8-0.5,1.2-0.8
	C287.7,344.2,284.2,356,275.6,365.4z M335.2,324.9c-2.9,6.9-8.8,24.7-12.4,23.8c-3.1-0.8-5-14.3-0.6-27.6c2.2-6.7,6.9-14.7,9.7-17.8
	c4.5-5,9.4-6.6,10.6-4.6C343.9,301.2,337,320.5,335.2,324.9z M384.5,348.4c-1.2,0.6-2.3,1-2.9,0.7c-0.4-0.2,0.5-1,0.5-1
	s6.2-6.6,8.6-9.6c1.4-1.8,3.1-3.8,4.8-6.2c0,0.2,0,0.5,0,0.7C395.6,340.9,387.9,346.2,384.5,348.4z M422.4,339.7
	c-0.9-0.6-0.7-2.7,2.2-9.2c1.1-2.5,3.8-6.8,8.5-10.9c0.5,1.7,0.9,3.3,0.8,4.8C433.9,334.5,426.7,338.2,422.4,339.7z"/>
</svg>
