<?xml version="1.0" encoding="utf-8"?>
<!-- Generator: Adobe Illustrator 22.0.0, SVG Export Plug-In . SVG Version: 6.00 Build 0)  -->
<svg version="1.1"
	 id="svg3476" inkscape:version="0.91 r13725" sodipodi:docname="CSS3.svg" xmlns:cc="http://creativecommons.org/ns#" xmlns:dc="http://purl.org/dc/elements/1.1/" xmlns:inkscape="http://www.inkscape.org/namespaces/inkscape" xmlns:rdf="http://www.w3.org/1999/02/22-rdf-syntax-ns#" xmlns:sodipodi="http://sodipodi.sourceforge.net/DTD/sodipodi-0.dtd" xmlns:svg="http://www.w3.org/2000/svg"
	 xmlns="http://www.w3.org/2000/svg" xmlns:xlink="http://www.w3.org/1999/xlink" x="0px" y="0px" viewBox="0 0 290.2 409.6"
	 style="enable-background:new 0 0 290.2 409.6;" xml:space="preserve">
<style type="text/css">
	.st0{fill:#264DE4;}
	.st1{fill:#2965F1;}
	.st2{fill:#EBEBEB;}
	.st3{fill:#FFFFFF;}
</style>
<sodipodi:namedview  bordercolor="#666666" borderopacity="1.0" fit-margin-bottom="0" fit-margin-left="0" fit-margin-right="0" fit-margin-top="0" id="base" inkscape:current-layer="layer1" inkscape:cx="181.367" inkscape:cy="256" inkscape:document-units="px" inkscape:pageopacity="0.0" inkscape:pageshadow="2" inkscape:window-height="704" inkscape:window-maximized="1" inkscape:window-width="1366" inkscape:window-x="0" inkscape:window-y="27" inkscape:zoom="0.35" pagecolor="#ffffff" showgrid="false">
	</sodipodi:namedview>
<polygon id="polygon2989" class="st0" points="290.2,46.5 263.8,342.7 144.9,375.6 26.4,342.7 0,46.5 "/>
<polygon id="polygon2991" class="st1" points="241.1,323.8 263.7,70.7 145.1,70.7 145.1,350.4 "/>
<polygon id="polygon2993" class="st2" points="60.5,180.6 63.8,216.9 145.1,216.9 145.1,180.6 "/>
<polygon id="polygon2995" class="st2" points="145.1,107 145,107 54,107 57.3,143.4 145.1,143.4 "/>
<polygon id="polygon2997" class="st2" points="145.1,312.7 145.1,274.9 144.9,275 104.5,264 101.9,235.1 82.2,235.1 65.4,235.1 
	70.5,292.1 144.9,312.8 "/>
<polygon id="polygon3005" class="st3" points="189.7,216.9 185.5,264 145,275 145,312.7 219.4,292.1 220,286 228.5,190.3 
	229.4,180.6 236,107 145,107 145,143.4 196.2,143.4 192.9,180.6 145,180.6 145,216.9 "/>
</svg>
