<?xml version="1.0" encoding="utf-8"?>
<!-- Generator: Adobe Illustrator 22.0.0, SVG Export Plug-In . SVG Version: 6.00 Build 0)  -->
<svg version="1.1" id="Capa_1" xmlns="http://www.w3.org/2000/svg" xmlns:xlink="http://www.w3.org/1999/xlink" x="0px" y="0px"
	 viewBox="0 0 2261 2500" style="enable-background:new 0 0 2261 2500;" xml:space="preserve">
<style type="text/css">
	.st0{fill:#99425B;}
	.st1{fill:#FFFFFF;}
</style>
<path class="st0" d="M2028.5,1232.7c0-116.6-94.5-211-211-211c-7.5,0-14.9,0.4-22.2,1.2l289.9-855H853.3l289.5,854.2
	c-4.3-0.3-8.6-0.4-12.8-0.4c-116.6,0-211,94.5-211,211c0,94.2,61.7,174,147,201.1c-45,78-101.6,148.2-165.9,208.9
	c-87.4,82.5-187.5,145-295.7,183.6c-128.9-66.2-189.7-213.4-134.8-342.5c6.2-14.6,12.5-29.4,18.6-44.1
	c93.4-21.8,162.9-105.5,162.9-205.5c0-116.6-94.5-211-211.1-211s-211,94.5-211,211c0,71.5,35.6,134.6,89.9,172.8
	c-52.2,118.9-129,243.4-152.9,387.7c-28.7,172.9-0.1,356.4,149.4,460.1c348.2,241.4,726.3-149.6,1124.8-247.9
	c144.4-35.6,303-29.9,430.3-103.6c95.6-55.4,158.6-147.1,176.5-250.1c17.7-101.7-8.1-203-67.3-285.2
	C2011.2,1330,2028.6,1282.1,2028.5,1232.7"/>
<path class="st1" d="M1995.9,1644.3c-15.5,89.4-70.7,167.5-151.5,214.3c-75.3,43.6-165.5,56.6-261,70.4
	c-51.2,7.4-104.1,15-155.8,27.8c-136.7,33.7-269.1,99.5-397.1,163c-256.2,127.3-477.4,237.1-686.1,92.5
	c-152.8-105.9-145.8-301.9-128-409.2c16.5-99.5,61.1-191.1,104.2-279.7c7.3-15.1,14.6-30.1,21.9-45.3c21.7,8.7,44.6,14.4,67.8,17
	c-43.9,144.9,25.1,302.5,170.1,377l19.8,10.2l21-7.5c114.6-40.8,220.2-106.3,313.8-194.7c60.5-57.1,112.6-120.3,155.4-187.8
	c13,2,26.1,2.9,39.3,2.9c133,0,243.2-99.5,260.2-227.9c54.5-2,112.3-2,167.1,0c17,128.5,127.2,227.9,260.2,227.9
	c55.6,0,107.2-17.4,149.7-47C1996.7,1508.6,2007.7,1576.6,1995.9,1644.3L1995.9,1644.3z M439.8,1074.7c88,0,159.5,71.6,159.5,159.5
	c0,31.6-9.3,61-25.2,85.9c-26.5,41.3-71.6,69.7-123.4,73.2c-3.6,0.2-7.3,0.4-11,0.4c-19.6,0-38.4-3.6-55.7-10.1
	c-35-13.1-64.2-38.1-82.8-70.5c-13.8-24-21-51.2-21-78.9C280.3,1146.2,351.8,1074.7,439.8,1074.7L439.8,1074.7z M970.4,1232.7
	c0-79.9,59.1-146.3,135.8-157.7c7.7-1.2,15.6-1.8,23.7-1.8c51.1,0,96.7,24.2,125.9,61.8c7.3,9.4,13.6,19.5,18.6,30.2
	c9.9,21.1,15,44.2,15,67.5c0,12.7-1.5,25.1-4.4,37c-15.5,65.1-71,114.8-139,121.7c-5.3,0.5-10.7,0.8-16.1,0.8
	c-30.7,0-60.7-8.9-86.4-25.6C999.6,1338.2,970.4,1288.8,970.4,1232.7L970.4,1232.7z M1636.1,1043c-34.7,33.1-59.7,75.1-72.2,121.4
	c-60.1-2.2-120.3-2.2-180.4,0c-13.5-50.1-41.5-94.2-79.1-127.8l165.1-333.7L1636.1,1043z M925.2,219.4h1088.1l-257,757.9
	c-11.1,2.6-21.9,6-32.5,10.1l-253.9-517.9l-254.6,514.8c-11.1-3.8-22.4-6.9-34-9.2L925.2,219.4z M1976.9,1232.7
	c0,16-2.4,31.4-6.8,46c-10.4,34.3-32.1,64.2-61.5,84.7c-26.7,18.8-58.6,28.8-91.2,28.8c-73.6,0-135.8-50.2-154-118.2
	c-3.6-13.5-5.5-27.4-5.5-41.3c0-21.8,4.4-42.6,12.4-61.5c4.1-9.7,9.2-19,15.1-27.7c28.7-42.4,77.1-70.3,132.1-70.3
	c5,0,10,0.3,14.9,0.7C1913.3,1081.5,1976.9,1149.8,1976.9,1232.7L1976.9,1232.7z M2080,1232.7c0-128.2-92.4-235.2-214-258l291-858.4
	H781.4l291.5,860.1c-117.4,26.1-205.5,131.1-205.5,256.3c0,94,49.7,176.6,124.1,223c-35.8,53.4-78.3,103.6-127,149.5
	c-77.2,72.8-163.2,128-255.9,164.4c-93.4-58.7-132.8-169.3-91.9-265.6l3.2-7.6l6-14.2c102.6-35.8,176.4-133.4,176.4-248
	c0-144.8-117.8-262.6-262.6-262.6s-262.6,117.8-262.6,262.6c0,73.1,30,139.3,78.4,186.9c-9,19.1-18.2,38.1-27.5,57.1
	c-44.2,90.8-94.3,193.7-113.3,308c-37.6,227,23.1,408.4,170.9,510.9c89.7,62.2,180.8,86.6,272.5,86.6
	c172.6,0,347.3-86.7,518.1-171.6c123-61.1,250.2-124.3,375.9-155.3c46.8-11.5,94.9-18.5,145.8-25.8c101-14.6,205.4-29.6,298-83.2
	c107.2-62.1,180.6-166.3,201.4-285.9c17.8-102.6-3.6-205.4-55.9-292.6C2066.8,1328.2,2080.1,1280.9,2080,1232.7L2080,1232.7z"/>
</svg>
