<?xml version="1.0" encoding="utf-8"?>
<!-- Generator: Adobe Illustrator 22.0.0, SVG Export Plug-In . SVG Version: 6.00 Build 0)  -->
<svg version="1.1" id="Capa_1" xmlns="http://www.w3.org/2000/svg" xmlns:xlink="http://www.w3.org/1999/xlink" x="0px" y="0px"
	 viewBox="0 0 22.3 24" style="enable-background:new 0 0 22.3 24;" xml:space="preserve">
<style type="text/css">
	.st0{fill:#FF9800;}
	.st1{fill:#757575;}
</style>
<path class="st0" d="M5.8,13.5l8.8,1.9l0.4-1.8l-8.8-1.9L5.8,13.5z M5.6,15.8h9v1.8h-9V15.8z M6.9,9.2l8.2,3.9l0.8-1.7L7.7,7.6
	L6.9,9.2z M15.1,13.1L15.1,13.1L15.1,13.1L15.1,13.1z"/>
<path class="st1" d="M2,14v7.3h16.2V14h-1.8v5.5H3.8V14L2,14z"/>
<path class="st0" d="M9.2,5.1l6.9,5.9l1.2-1.4l-6.9-5.9L9.2,5.1z M19.1,8.2l-5.4-7.3l-1.4,1.1l5.4,7.3L19.1,8.2z"/>
</svg>
