<?xml version="1.0" encoding="utf-8"?>
<!-- Generator: Adobe Illustrator 22.0.0, SVG Export Plug-In . SVG Version: 6.00 Build 0)  -->
<svg version="1.1" id="Capa_1" xmlns="http://www.w3.org/2000/svg" xmlns:xlink="http://www.w3.org/1999/xlink" x="0px" y="0px"
	 viewBox="0 0 630 630" style="enable-background:new 0 0 630 630;" xml:space="preserve">
<style type="text/css">
	.st0{fill:#F7DF1E;}
</style>
<rect x="61" y="54" class="st0" width="522" height="522"/>
<path d="M411.7,461.8c10.5,17.2,24.2,29.8,48.4,29.8c20.3,0,33.3-10.2,33.3-24.2c0-16.8-13.3-22.8-35.7-32.6l-12.3-5.3
	c-35.4-15.1-58.9-34-58.9-73.9c0-36.8,28-64.8,71.8-64.8c31.2,0,53.6,10.9,69.8,39.3l-38.2,24.5c-8.4-15.1-17.5-21-31.6-21
	c-14.4,0-23.5,9.1-23.5,21c0,14.7,9.1,20.7,30.2,29.8l12.3,5.3c41.7,17.9,65.2,36.1,65.2,77.1c0,44.2-34.7,68.4-81.3,68.4
	c-45.6,0-75-21.7-89.4-50.2L411.7,461.8z M238.4,466.1c7.7,13.7,14.7,25.2,31.6,25.2c16.1,0,26.3-6.3,26.3-30.8V293.7h49.1v167.5
	c0,50.8-29.8,73.9-73.2,73.9c-39.3,0-62-20.3-73.6-44.8L238.4,466.1z"/>
</svg>
