<?xml version="1.0" encoding="utf-8"?>
<!-- Generator: Adobe Illustrator 22.0.0, SVG Export Plug-In . SVG Version: 6.00 Build 0)  -->
<svg version="1.1" id="Capa_1" xmlns="http://www.w3.org/2000/svg" xmlns:xlink="http://www.w3.org/1999/xlink" x="0px" y="0px"
	 viewBox="0 0 2500 2500" style="enable-background:new 0 0 2500 2500;" xml:space="preserve">
<style type="text/css">
	.st0{fill:#DE4C36;}
	.st1{fill:#161614;}
</style>
<path class="st0" d="M1548.3,718.7l-689-688.9c-39.7-39.7-104-39.7-143.7,0L572.5,172.8L754,354.3c42.2-14.3,90.5-4.7,124.2,28.9
	c33.8,33.8,43.3,82.6,28.7,124.9l174.9,174.9c42.3-14.6,91.1-5.1,124.9,28.7c47.2,47.2,47.2,123.7,0,171
	c-47.2,47.3-123.8,47.3-171,0c-35.5-35.6-44.3-87.7-26.3-131.5L846.2,588.2l0,429.3c11.8,5.8,22.6,13.6,32,22.9
	c47.2,47.2,47.2,123.8,0,171c-47.2,47.2-123.8,47.2-171,0c-47.2-47.3-47.2-123.8,0-171c11.3-11.3,24.8-20.3,39.6-26.4V580.6
	c-14.8-6.1-28.3-15-39.6-26.4c-35.8-35.7-44.4-88.3-26.1-132.2L502.2,243.1L29.8,715.5c-39.7,39.7-39.7,104.1,0,143.8l689,689
	c39.7,39.7,104,39.7,143.7,0l685.8-685.8C1587.9,822.8,1587.9,758.4,1548.3,718.7"/>
<g>
	<path class="st1" d="M1786.3,1076.8c-368.4,0-667.1,298.7-667.1,667.1c0,294.7,191.1,544.8,456.2,633c33.3,6.2,45.6-14.5,45.6-32.1
		c0-15.9-0.6-68.5-0.9-124.2c-185.6,40.4-224.7-78.7-224.7-78.7c-30.3-77.1-74.1-97.6-74.1-97.6c-60.5-41.4,4.6-40.6,4.6-40.6
		c67,4.7,102.3,68.7,102.3,68.7c59.5,102,156.1,72.5,194.1,55.5c6-43.1,23.3-72.5,42.4-89.2c-148.2-16.9-303.9-74.1-303.9-329.7
		c0-72.8,26.1-132.3,68.7-179.1c-6.9-16.8-29.8-84.7,6.5-176.5c0,0,56-17.9,183.5,68.4c53.2-14.8,110.3-22.2,167-22.4
		c56.7,0.3,113.8,7.7,167.1,22.4c127.3-86.3,183.3-68.4,183.3-68.4c36.3,91.9,13.5,159.7,6.5,176.5c42.8,46.7,68.7,106.2,68.7,179.1
		c0,256.2-156.1,312.6-304.6,329.1c23.9,20.7,45.2,61.3,45.2,123.5c0,89.3-0.8,161.1-0.8,183.1c0,17.8,12,38.6,45.8,32
		c264.9-88.3,455.8-338.3,455.8-632.9C2453.4,1375.4,2154.7,1076.8,1786.3,1076.8"/>
	<path class="st1" d="M1369,2027c-1.5,3.3-6.7,4.3-11.4,2c-4.8-2.2-7.6-6.7-6-10c1.4-3.4,6.7-4.4,11.5-2.1
		C1368,2019.2,1370.7,2023.7,1369,2027 M1401.9,2056.3c-3.2,3-9.4,1.6-13.6-3.1c-4.4-4.7-5.2-10.9-2-13.9c3.3-2.9,9.3-1.6,13.7,3.1
		C1404.3,2047.2,1405.2,2053.3,1401.9,2056.3 M1424.4,2093.8c-4.1,2.8-10.8,0.2-14.9-5.8c-4.1-5.9-4.1-13,0.1-15.9
		c4.1-2.9,10.7-0.3,14.9,5.6C1428.5,2083.8,1428.5,2090.9,1424.4,2093.8 M1462.4,2137.2c-3.7,4-11.4,3-17.1-2.6
		c-5.8-5.4-7.5-13-3.8-17c3.7-4,11.5-2.9,17.3,2.6C1464.6,2125.5,1466.3,2133.2,1462.4,2137.2 M1511.6,2151.8
		c-1.6,5.2-9.1,7.6-16.7,5.4c-7.5-2.3-12.5-8.4-11-13.7c1.6-5.3,9.1-7.7,16.7-5.4C1508.3,2140.4,1513.2,2146.5,1511.6,2151.8
		 M1567.6,2158c0.2,5.5-6.2,10.1-14.2,10.2c-8,0.2-14.4-4.3-14.5-9.7c0-5.6,6.3-10.1,14.2-10.2
		C1561.1,2148.1,1567.6,2152.6,1567.6,2158 M1622.6,2155.9c1,5.4-4.6,10.9-12.4,12.3c-7.7,1.4-14.9-1.9-15.9-7.2
		c-1-5.5,4.7-11,12.4-12.4C1614.6,2147.2,1621.6,2150.5,1622.6,2155.9"/>
</g>
</svg>
