<?xml version="1.0" encoding="utf-8"?>
<!-- Generator: Adobe Illustrator 22.0.0, SVG Export Plug-In . SVG Version: 6.00 Build 0)  -->
<svg version="1.1" id="Layer_1" xmlns="http://www.w3.org/2000/svg" xmlns:xlink="http://www.w3.org/1999/xlink" x="0px" y="0px"
	 viewBox="0 0 2500 2500" style="enable-background:new 0 0 2500 2500;" xml:space="preserve">
<style type="text/css">
	.st0{fill:#EFCCA3;}
	.st1{fill:#CCAC8D;}
	.st2{fill:#FFFFFF;}
	.st3{fill:#56332B;}
	.st4{fill:#442823;}
	.st5{fill:#7F4A41;}
	.st6{fill:#331712;}
	.st7{fill:url(#SVGID_1_);}
	.st8{fill:url(#SVGID_2_);stroke:#FFFFFF;}
	.st9{fill:#CD6799;}
	.st10{fill:#264DE4;}
	.st11{fill:#2965F1;}
	.st12{fill:#EBEBEB;}
	.st13{fill:#848484;}
	.st14{fill:#0ACF83;}
	.st15{fill:#A259FF;}
	.st16{fill:#F24E1E;}
	.st17{fill:#FF7262;}
	.st18{fill:#1ABCFE;}
	.st19{fill:#DE4C36;}
	.st20{fill:#161614;}
	.st21{fill:#E44D26;}
	.st22{fill:#F16529;}
	.st23{fill:#94795D;}
	.st24{fill:#50382B;}
	.st25{fill:#4F382B;}
	.st26{fill:#4F372B;}
	.st27{fill:#439934;}
	.st28{fill:#45A538;}
	.st29{fill:#46A037;}
	.st30{fill:#409433;}
	.st31{fill:#4FAA41;}
	.st32{fill:#4AA73C;}
	.st33{fill:#57AE47;}
	.st34{fill:#60B24F;}
	.st35{fill:#A9AA88;}
	.st36{fill:#B6B598;}
	.st37{fill:#C2C1A7;}
	.st38{fill:#CECDB7;}
	.st39{fill:#DBDAC7;}
	.st40{fill:#EBE9DC;}
	.st41{fill:#539E43;}
	.st42{fill:#333333;}
	.st43{fill:url(#a_2_);}
	.st44{filter:url(#Adobe_OpacityMaskFilter);}
	.st45{mask:url(#c_4_);}
	.st46{fill:none;}
	.st47{fill:url(#SVGID_3_);}
	.st48{filter:url(#Adobe_OpacityMaskFilter_1_);}
	.st49{mask:url(#c_3_);}
	.st50{fill:url(#SVGID_4_);}
	.st51{fill:url(#SVGID_5_);}
	.st52{fill:url(#SVGID_6_);}
	.st53{fill:url(#SVGID_7_);}
	.st54{fill:url(#SVGID_8_);}
	.st55{fill:#61DAFB;}
	.st56{fill:#99425B;}
	.st57{fill:#FF3E00;}
	.st58{fill:#F7DF1E;}
	.st59{fill:#8ED6FB;}
	.st60{fill:#1C78C0;}
	.st61{fill:#330000;}
	.st62{fill:#FF9A00;}
</style>
<path class="st0" d="M2392.8,313.8c-0.7-15.4,1.4-29-5.6-40.6c-16.8-28.7-58.8-45.5-142.8-45.5v2.4h-1.7h1.7v-2.4
	c-84,0-128.1,16.8-144.9,45.8c-6.6,11.9-5.9,25.2-7,40.6c-0.7,12.2-6.3,25.2-3.8,39.2c2.8,18.2,3.8,36.4,6.6,53.2
	c2.1,13.6,21,25.2,22.7,38.1c4.9,35.7,42,52.1,126,52.1v2.8h-2.1h2.4v-2.8c84,0,119.7-16.4,124.2-52.1c1.7-13.3,19.2-24.5,21.3-38.1
	c2.8-16.8,3.8-35,6.6-53.2C2399.1,339.3,2393.5,326,2392.8,313.8L2392.8,313.8z"/>
<path class="st1" d="M2243,326.4c15,0.3,25.5,9.8,35.3,18.5c11.5,10.1,31.1,17.1,39.2,25.9c8,8.7,18.5,17.5,22.4,31.1
	c3.8,13.6,4.9,31.1,4.9,35.7c0,4.5,2.4,3.5,9.4,0c16.4-8,34.6-29.7,34.6-29.7c-2.1,13.6-19.9,25.9-21.7,38.8
	c-4.2,35.7-38.8,52.8-124.6,52.8h-0.3h2.1"/>
<path class="st1" d="M2298.3,299.1c3.1,10.8,14.3,47.6-7.3,35.3c0,0,9.1,5.2,14.7,25.2c5.9,19.9,20.3,22.4,20.3,22.4
	s23.4,4.5,40.9-10.5c14.7-12.6,17.1-35,10.8-52.1c-6.3-16.8-17.5-22-33.9-25.5C2327.3,290,2294.4,286.9,2298.3,299.1z"/>
<circle cx="2339.9" cy="339" r="30.8"/>
<circle class="st2" cx="2331.9" cy="325.3" r="8"/>
<path class="st0" d="M2293,337.6c0,0,27.6,18.9,42.7,37.4c15,18.5,14.7,22,14.7,22l-10.8,4.9c0,0-15.4-29-34.3-39.9
	c-19.2-10.8-21.3-19.9-21.3-19.9L2293,337.6L2293,337.6z"/>
<path class="st1" d="M2244,326.4c-15,0.3-26.2,9.8-36.4,18.5c-11.5,10.1-31.8,17.1-39.9,25.9c-8,8.7-18.9,17.5-22.7,31.1
	c-3.8,13.6-5.2,31.1-5.2,35.7c0,4.5,0.7,4.9-9.4,0c-16.4-7.7-34.6-29.7-34.6-29.7c2.1,13.6,19.9,25.9,21.7,38.8
	c4.9,35.7,39.5,52.8,125.3,52.8h1.7"/>
<path class="st3" d="M2325.2,385.5c-16.8-20.6-43.7-39.9-81.2-39.9h-0.3c-37.4,0-64.4,19.2-81.2,39.9c-17.5,21.3-16.1,29.7-16.1,50
	c0,73.5,25.9,52.5,43,61.6c17.5,8.7,35.7,5.9,54.2,5.9h0.3c18.9,0,36.7,2.4,54.2-6.3c17.1-8.7,43,12.9,43-60.5
	C2341.7,416,2342.7,406.9,2325.2,385.5L2325.2,385.5z"/>
<path class="st4" d="M2242.3,363.8c0,0-2.4,33.9-7.3,40.6l9.1-2.1L2242.3,363.8z"/>
<path class="st4" d="M2244.7,363.8c0,0,2.4,33.9,7.3,40.6l-9.1-2.1L2244.7,363.8z"/>
<path class="st3" d="M2215.3,355.8c-3.5-8,9.1-21,29-21.3c19.9,0,32.5,12.9,29,21.3s-16.1,10.8-29,11.2
	C2231.8,366.6,2218.8,364.2,2215.3,355.8L2215.3,355.8z"/>
<path d="M2244.4,363.8c0-1.4,11.9-1.7,18.2-5.9c0,0-12.9,4.2-15.7,2.4c-2.8-1.4-3.5-5.6-3.5-5.6s-1,4.2-3.1,5.6
	c-2.4,1.4-17.1-2.4-17.1-2.4s19.6,4.9,19.6,5.9c0,1-0.3,4.5-0.3,7c0,8.7,0,30.4,1.4,32.2c2.1,3.1,1.4-23.4,1.4-32.2
	C2244.7,368,2244.7,365.2,2244.4,363.8z"/>
<path class="st5" d="M2245.1,410.7c5.9,0,16.4,4.2,25.9,10.8c-9.1-10.1-19.9-17.1-25.9-17.1c-6.3,0-19.6,7.7-29,18.9
	C2225.8,415.6,2238.4,410.7,2245.1,410.7z"/>
<path class="st4" d="M2242.6,472.7c-13.3,0-26.2-4.2-38.1-7.3c-2.4-0.7-4.9,1-7.3,0.3c-22-7-39.9-18.9-50.7-33.9v3.5
	c0,73.5,25.9,52.8,43,61.6c17.5,8.7,35.7,5.9,54.2,5.9h0.3c18.9,0,36.7,2.4,54.2-6.3c17.1-8.7,43,12.6,43-60.9c0-2.8,0-5.6,0.4-8
	c-10.1,16.4-28.7,29.4-51.8,37.1c-2.1,0.7-7-1-9.1-0.7C2268.2,468.1,2257,472.7,2242.6,472.7L2242.6,472.7z"/>
<path class="st4" d="M2209.4,433.1c0,0-8.7,26.2-2.8,37.8l-8-3.5C2198.5,467.4,2204.5,440.8,2209.4,433.1z M2278.7,433.1
	c0,0,8.7,26.2,2.8,37.8l8-3.5C2289.5,467.4,2283.2,440.8,2278.7,433.1L2278.7,433.1z"/>
<path class="st1" d="M2187,299.1c-3.1,10.8-14.3,47.6,7.3,35.3c0,0-9.1,5.2-14.7,25.2c-5.6,19.9-20.3,22.4-20.3,22.4
	s-23.4,4.5-40.9-10.5c-14.7-12.6-17.1-35-10.8-52.1s17.5-22,33.9-25.5C2157.9,290,2190.5,286.9,2187,299.1L2187,299.1z"/>
<path d="M2244,404.4c9.4,0,38.8,20.3,39.2,45.1v-1.4c0-25.9-23.8-46.5-39.2-46.5s-39.2,21-39.2,46.5v1.4
	C2205.2,424.7,2234.6,404.4,2244,404.4z"/>
<ellipse transform="matrix(0.9683 -0.2498 0.2498 0.9683 -16.316 573.2368)" class="st6" cx="2250.4" cy="350.9" rx="2.8" ry="5.2"/>
<ellipse transform="matrix(0.2963 -0.9551 0.9551 0.2963 1237.7916 2381.813)" class="st6" cx="2235.2" cy="350.9" rx="5.2" ry="2.8"/>
<circle cx="2147.1" cy="339" r="30.8"/>
<circle class="st2" cx="2155.1" cy="325.3" r="8"/>
<path class="st5" d="M2253.1,339.3c0-0.3-8,3.5-10.1,3.8c-2.1-0.3-10.1-4.2-10.1-3.8H2253.1z"/>
<path class="st0" d="M2191.9,337.6c0,0-27.6,18.9-42.7,37.4c-15,18.5-14.7,22-14.7,22l10.8,4.9c0,0,15.4-29,34.3-39.9
	c18.9-10.8,21.3-19.9,21.3-19.9L2191.9,337.6z"/>
<path class="st1" d="M2131.3,281.6c0,0-9.4,25.9-30.4,36.7C2100.9,318.4,2133.8,314.5,2131.3,281.6z M2352.2,281.6
	c0,0,9.4,25.9,30.4,36.7C2382.6,318.4,2349.7,314.5,2352.2,281.6z M2292.3,329.9c0,0-20.6-21.7-48.3-22.4h0.3h0.4
	c-28,0.7-48.3,22.4-48.3,22.4c24.1-16.8,44.8-16.4,48.3-16.4C2244.4,313.5,2268.2,313.1,2292.3,329.9L2292.3,329.9z M2268.2,284.4
	c0,0-10.5-14.7-24.5-15h0.7c-10.5,0.3-24.1,15-24.1,15c11.9-11.5,24.1-11.2,24.1-11.2S2255.9,272.9,2268.2,284.4z M2147.1,391.8
	c0,0-16.4,8-28.3,3.1h-0.3c-10.5-5.9-15.7-23.8-15.7-23.8S2113.1,402.7,2147.1,391.8z M2338.9,391.8c0,0,16.4,8,28.3,3.1
	c14-5.9,16.1-23.8,16.1-23.8S2372.8,402.7,2338.9,391.8z"/>
<path class="st1" d="M2166,279.9c9.1-1.7,24.1-2.1,36,1.7c15,5.2,2.8,24.5,5.9,25.5c3.1,1,7.3-13.3,35.3-11.9
	c28.3,1.4,31.5,14,35.3,11.9c3.8-2.1-3.8-35,38.5-27.3c0,0-44.4-11.9-42.3,20.3c0,0-25.5-19.6-61.2-2.1
	C2213.9,298.1,2223,268,2166,279.9z M2321,279.9c0.7,0,1.1,0.3,1.4,0.3S2322.1,279.9,2321,279.9z M2153.7,236.8
	c0,0-37.8,47.6-43.4,65.8c-5.6,18.5-9.8,94.5-14.7,105.3l-17.5-74.9l32.2-78L2153.7,236.8L2153.7,236.8z M2331.5,236.8
	c0,0,37.8,47.6,43.4,65.8c5.6,18.5,9.8,94.5,14.7,105.3l17.5-74.9l-32.2-78L2331.5,236.8L2331.5,236.8z"/>
<path class="st3" d="M2329.8,236.8c0,0,40.6,33.9,52.5,73.1s7,86.8,16.1,92.7c12.9,8.4,27.6-41.6,32.5-46.9
	c7.7-8.4,33.2-29.7,35-33.6c1.7-3.8-51.8-62.3-75.2-73.8C2362.3,235.1,2327.3,234,2329.8,236.8L2329.8,236.8z"/>
<path class="st4" d="M2364.4,257.8c0,0,47.9,61.2,47.2,137.5l19.2-39.2C2430.5,356.1,2413.8,306.1,2364.4,257.8L2364.4,257.8z"/>
<path class="st3" d="M2153.7,236.8c0,0-40.6,33.9-52.5,73.1s-7,86.8-16.1,92.7c-12.9,8.4-27.6-41.6-32.5-46.9
	c-7.7-8.4-33.2-29.7-35-33.6c-1.7-3.8,51.8-62.3,75.2-73.8C2121.2,235.1,2156.2,234,2153.7,236.8L2153.7,236.8z"/>
<path class="st4" d="M2119.1,257.8c0,0-47.9,61.2-47.2,137.5l-18.9-39.2C2053,356.1,2069.8,306.1,2119.1,257.8z"/>
<path class="st1" d="M2093.2,396.7c0,0,3.5,18.9,9.1,24.8c5.6,5.9,1.7-4.5,1.7-4.5s-5.9-3.1-4.9-27.3
	C2100.2,365.6,2093.2,396.7,2093.2,396.7L2093.2,396.7z M2391.7,396.7c0,0-3.5,18.9-9.1,24.8c-5.6,5.9-1.7-4.5-1.7-4.5
	s5.9-3.1,4.9-27.3C2384.7,365.6,2391.7,396.7,2391.7,396.7L2391.7,396.7z"/>
<g>
	<circle class="st4" cx="2207.6" cy="382.4" r="2.8"/>
	<circle class="st4" cx="2191.5" cy="399.2" r="2.8"/>
	<circle class="st4" cx="2186.3" cy="382.4" r="2.8"/>
</g>
<g>
	<circle class="st4" cx="2275.9" cy="382.4" r="2.8"/>
	<circle class="st4" cx="2292" cy="399.2" r="2.8"/>
	<circle class="st4" cx="2297.2" cy="382.4" r="2.8"/>
</g>
<linearGradient id="SVGID_1_" gradientUnits="userSpaceOnUse" x1="1120.6798" y1="764.3368" x2="1437.1989" y2="1015.5897" gradientTransform="matrix(1 0 0 1 0 -382)">
	<stop  offset="0" style="stop-color:#9013FE"/>
	<stop  offset="1" style="stop-color:#6610F2"/>
</linearGradient>
<path class="st7" d="M1124.1,390.6c-0.7-19.6,14.6-37.7,35.3-37.7h211.8c20.7,0,36,18.1,35.3,37.7c-0.7,18.8,0.1,43.2,6.3,63.1
	c6.2,20,16.6,32.6,33.6,34.3v18.5c-17,1.6-27.4,14.2-33.6,34.3c-6.2,19.9-7,44.3-6.3,63.1c0.7,19.6-14.6,37.7-35.3,37.7h-211.8
	c-20.7,0-36-18.1-35.3-37.7c0.7-18.8-0.1-43.2-6.3-63.1c-6.2-20-16.6-32.6-33.6-34.3V488c17-1.6,27.4-14.2,33.6-34.3
	C1124,433.9,1124.8,409.4,1124.1,390.6z"/>
<linearGradient id="SVGID_2_" gradientUnits="userSpaceOnUse" x1="1218.016" y1="814.3137" x2="1288.7665" y2="933.9681" gradientTransform="matrix(1 0 0 1 0 -382)">
	<stop  offset="0" style="stop-color:#FFFFFF"/>
	<stop  offset="1" style="stop-color:#F1E5FC"/>
</linearGradient>
<path class="st8" d="M1273.2,573.9c33.5,0,53.6-16.3,53.6-43.4c0-20.4-14.4-35.2-35.7-37.6v-0.8c15.7-2.5,28.1-17.1,28.1-33.3
	c0-23.2-18.3-38.4-46.3-38.4h-62.9V574h63.1V573.9z M1234.4,439.8h32.4c17.7,0,27.7,7.9,27.7,22.1c0,15.2-11.6,23.7-32.8,23.7h-27.3
	V439.8z M1234.4,554.4v-50.5h32.3c23.1,0,35.1,8.6,35.1,25c0,16.6-11.6,25.4-33.7,25.4H1234.4z"/>
<path class="st9" d="M1698.4,749.8c-13,0.1-24.4,3.2-33.9,7.9c-3.4-6.9-7-13-7.6-17.5c-0.7-5.3-1.4-8.4-0.7-14.8
	c0.8-6.3,4.5-15.3,4.5-15.9c-0.1-0.7-0.8-4-8.3-4c-7.5-0.1-14,1.4-14.8,3.4c-0.8,2-2.2,6.5-3.2,11.2c-1.3,6.9-15,31.2-22.9,44
	c-2.5-5-4.7-9.4-5.1-12.8c-0.7-5.3-1.4-8.4-0.7-14.8c0.8-6.3,4.5-15.3,4.5-15.9c-0.1-0.7-0.8-4-8.3-4c-7.5-0.1-14,1.4-14.8,3.4
	c-0.8,2-1.6,6.6-3.2,11.2s-19.8,45.2-24.6,55.8c-2.5,5.4-4.6,9.8-6.1,12.7l0,0c0,0-0.1,0.3-0.3,0.5c-1.3,2.5-2.1,4-2.1,4s0,0,0,0.1
	c-1.1,1.8-2.1,3.6-2.6,3.6c-0.4,0-1.2-4.9,0.1-11.6c2.8-14.1,9.2-36.1,9.1-36.9c0-0.4,1.2-4.2-4.2-6.2c-5.3-2-7.2,1.3-7.8,1.3
	s-0.8,1.2-0.8,1.2s5.9-24.8-11.3-24.8c-10.8,0-25.7,11.9-33.1,22.5c-4.6,2.5-14.5,7.9-25.2,13.7c-4.1,2.2-8.2,4.5-12.1,6.6
	c-0.3-0.3-0.5-0.7-0.8-0.9c-21-22.4-59.6-38.1-58-68.1c0.7-10.9,4.3-39.7,74.3-74.5c57.6-28.3,103.3-20.6,111.2-3
	c11.3,24.9-24.5,71-84,77.8c-22.7,2.5-34.5-6.2-37.6-9.5c-3.2-3.4-3.6-3.6-4.7-2.9c-2,1.1-0.7,4.1,0,5.9c1.7,4.6,9.1,12.8,21.5,16.9
	c10.9,3.6,37.6,5.5,69.7-6.9c36-14,64.2-52.7,55.9-85.1c-8.3-33-63-43.8-114.7-25.4c-30.7,10.9-64.1,28.2-88,50.6
	c-28.5,26.6-33,49.8-31.1,59.6c6.6,34.4,54.2,56.8,73.1,73.4c-0.9,0.5-1.8,1.1-2.6,1.4c-9.5,4.7-45.7,23.6-54.7,43.6
	c-10.3,22.7,1.6,39,9.5,41.1c24.4,6.7,49.4-5.4,63-25.4c13.4-20,11.9-46.3,5.7-58.1c-0.1-0.1-0.1-0.3-0.3-0.4c2.5-1.4,5-2.9,7.5-4.3
	c4.9-2.9,9.6-5.5,13.7-7.8c-2.4,6.3-4.1,14-4.9,24.9c-1.1,12.8,4.2,29.5,11.2,36.1c3,2.9,6.7,2.9,9,2.9c8,0,11.7-6.7,15.7-14.6
	c4.9-9.8,9.4-21,9.4-21s-5.5,30.4,9.5,30.4c5.4,0,10.9-7.1,13.4-10.7c0,0.1,0,0.1,0,0.1s0.1-0.3,0.4-0.7c0.5-0.9,0.9-1.4,0.9-1.4
	v-0.1c2.2-3.8,7.1-12.5,14.4-26.9c9.5-18.6,18.6-41.8,18.6-41.8s0.8,5.7,3.6,15.2c1.6,5.5,5,11.6,7.8,17.5c-2.2,3-3.6,4.7-3.6,4.7
	s0,0,0.1,0.1c-1.7,2.4-3.7,4.9-5.8,7.2c-7.5,8.8-16.3,19.1-17.5,22c-1.4,3.4-1.1,6.1,1.6,8c2,1.4,5.5,1.7,9.1,1.4
	c6.7-0.5,11.5-2.1,13.7-3.2c3.6-1.3,7.9-3.3,11.9-6.2c7.2-5.4,11.7-13.2,11.3-23.3c-0.3-5.7-2.1-11.2-4.3-16.5c0.7-0.9,1.3-2,2-2.9
	c11.6-16.9,20.6-35.5,20.6-35.5s0.8,5.7,3.6,15.2c1.3,4.7,4.2,10,6.6,15c-10.8,8.8-17.5,19.1-19.9,25.8c-4.3,12.4-0.9,18.1,5.4,19.4
	c2.9,0.7,7-0.8,10-2.1c3.8-1.2,8.3-3.3,12.7-6.5c7.2-5.4,14.4-12.9,14-23.1c-0.3-4.6-1.4-9.2-3.2-13.7c9.2-3.8,21.1-5.9,36.2-4.2
	c32.6,3.8,39,24.1,37.7,32.7s-8,13.2-10.3,14.6c-2.2,1.4-3,2-2.8,2.9c0.3,1.4,1.3,1.4,3.3,1.2c2.6-0.5,17.1-6.9,17.7-22.7
	C1751.4,771.6,1732.3,749.7,1698.4,749.8z M1447.4,834.5c-10.8,11.7-25.8,16.2-32.3,12.4c-7-4.1-4.2-21.4,9-33.9
	c8-7.6,18.5-14.6,25.3-19c1.6-0.9,4-2.4,6.7-4.1c0.5-0.3,0.8-0.4,0.8-0.4l0,0c0.5-0.4,1.1-0.7,1.6-1.1
	C1463.4,806.5,1458.8,822.1,1447.4,834.5z M1526,781.1c-3.8,9.1-11.6,32.6-16.3,31.4c-4.1-1.1-6.6-18.8-0.8-36.4
	c2.9-8.8,9.1-19.4,12.8-23.5c5.9-6.6,12.4-8.7,14-6.1C1537.5,749.8,1528.4,775.3,1526,781.1z M1591,812.1c-1.6,0.8-3,1.3-3.8,0.9
	c-0.5-0.3,0.7-1.3,0.7-1.3s8.2-8.7,11.3-12.7c1.8-2.4,4.1-5,6.3-8.2c0,0.3,0,0.7,0,0.9C1605.6,802.2,1595.5,809.2,1591,812.1z
	 M1640.9,800.6c-1.2-0.8-0.9-3.6,2.9-12.1c1.4-3.3,5-9,11.2-14.4c0.7,2.2,1.2,4.3,1.1,6.3C1656.1,793.7,1646.6,798.6,1640.9,800.6z"
	/>
<polygon id="polygon2989" class="st10" points="982.6,64.3 956.2,360.5 837.3,393.4 718.8,360.5 692.4,64.3 "/>
<polygon id="polygon2991" class="st11" points="933.5,341.6 956.1,88.5 837.5,88.5 837.5,368.2 "/>
<polygon id="polygon2993" class="st12" points="752.9,198.4 756.2,234.7 837.5,234.7 837.5,198.4 "/>
<polygon id="polygon2995" class="st12" points="837.5,124.8 837.4,124.8 746.4,124.8 749.7,161.2 837.5,161.2 "/>
<polygon id="polygon2997" class="st12" points="837.5,330.5 837.5,292.7 837.3,292.8 796.9,281.8 794.3,252.9 774.6,252.9 
	757.8,252.9 762.9,309.9 837.3,330.6 "/>
<polygon id="polygon3005" class="st2" points="882.1,234.7 877.9,281.8 837.4,292.8 837.4,330.5 911.8,309.9 912.4,303.8 
	920.9,208.1 921.8,198.4 928.4,124.8 837.4,124.8 837.4,161.2 888.6,161.2 885.3,198.4 837.4,198.4 837.4,234.7 "/>
<g>
	<g>
		<g>
			<path class="st13" d="M1891.6,728.1v-51h63.6v-3h-63.6v-46.5h67.6v-3h-70.6V731h71.2v-3H1891.6L1891.6,728.1z M2017.3,654.4
				l-26.4,34.7l-25.8-34.7h-3.9l27.9,37l-30.5,39.6h3.6l28.8-37.4l28.9,37.4h3.7l-30.7-39.6l28-37H2017.3L2017.3,654.4z
				 M2032.5,757.3v-47.7h0.3c1.8,7,5.3,12.5,10.6,16.8c5.3,4.2,12,6.3,20.1,6.3c5.3,0,9.9-1.1,14-3.2c4.1-2.1,7.5-5,10.2-8.7
				s4.8-7.9,6.3-12.8s2.2-10,2.2-15.3c0-5.8-0.8-11.1-2.2-16s-3.6-9.1-6.5-12.7c-2.8-3.6-6.3-6.4-10.3-8.4c-4-2-8.6-3-13.6-3
				c-3.9,0-7.5,0.6-10.8,1.7c-3.3,1.1-6.3,2.7-8.9,4.8c-2.6,2.1-4.9,4.6-6.7,7.4c-1.9,2.8-3.3,5.9-4.3,9.3h-0.3v-21.4h-3v102.8
				L2032.5,757.3L2032.5,757.3z M2063.5,729.8c-9.3,0-16.8-3.2-22.5-9.6c-5.7-6.4-8.5-15.6-8.5-27.6c0-5,0.7-9.7,2.1-14.2
				c1.4-4.5,3.4-8.4,6-11.8c2.6-3.4,5.9-6.1,9.8-8c3.9-2,8.2-3,13.1-3c5,0,9.3,1,13,3c3.7,2,6.8,4.7,9.2,8.1
				c2.4,3.4,4.3,7.3,5.5,11.8c1.2,4.4,1.9,9.1,1.9,14.1c0,4.5-0.6,8.9-1.7,13.3c-1.1,4.4-2.9,8.4-5.3,11.9c-2.4,3.5-5.4,6.4-9.2,8.6
				S2068.7,729.8,2063.5,729.8L2063.5,729.8z M2112.5,731v-43.4c0-4.2,0.6-8.2,1.8-12.2s3-7.5,5.5-10.5c2.5-3,5.6-5.4,9.5-7.2
				c3.8-1.7,8.4-2.5,13.6-2.2v-3c-4.6-0.1-8.6,0.4-12,1.5c-3.4,1.1-6.4,2.6-8.9,4.5c-2.5,1.9-4.5,4.1-6,6.6
				c-1.5,2.5-2.6,5.3-3.3,8.1h-0.3v-18.9h-3V731H2112.5L2112.5,731z M2146.6,693.3h64.1c0.2-5.3-0.3-10.3-1.6-15.2
				c-1.2-4.9-3.2-9.2-6-13c-2.7-3.8-6.3-6.8-10.6-9.1c-4.3-2.3-9.5-3.4-15.4-3.4c-4.3,0-8.4,0.9-12.5,2.7c-4.1,1.8-7.7,4.4-10.7,7.8
				c-3.1,3.4-5.6,7.6-7.5,12.6c-1.9,5-2.8,10.6-2.8,17c0,5.7,0.6,11,1.9,15.9c1.3,4.9,3.3,9.2,6,12.8c2.7,3.6,6.1,6.4,10.3,8.4
				c4.2,2,9.3,2.9,15.3,2.8c8.7,0,16.1-2.5,22.1-7.4c6-4.9,9.5-11.9,10.6-20.8h-3c-1.3,8.4-4.6,14.8-9.9,19c-5.3,4.2-12,6.3-20,6.3
				c-5.5,0-10.1-1-13.9-2.8c-3.8-1.9-6.9-4.5-9.2-7.7c-2.4-3.3-4.1-7.1-5.3-11.6C2147.3,703.3,2146.7,698.5,2146.6,693.3
				L2146.6,693.3z M2207.7,690.4h-61.1c0.3-5.4,1.3-10.2,3-14.5c1.7-4.3,3.9-7.9,6.6-11s5.9-5.3,9.5-6.9c3.6-1.6,7.5-2.4,11.7-2.4
				c5,0,9.3,0.9,13.1,2.8c3.8,1.8,6.9,4.3,9.5,7.5c2.5,3.2,4.5,6.9,5.7,11.1C2207.1,681.2,2207.7,685.7,2207.7,690.4L2207.7,690.4z
				 M2272.5,677.1h3c0-8.5-2.5-14.7-7.5-18.6c-5-3.9-11.7-5.8-20.3-5.8c-4.8,0-8.8,0.6-12.1,1.8c-3.3,1.2-6,2.7-8,4.6
				s-3.6,4-4.5,6.3c-0.9,2.3-1.3,4.5-1.3,6.6c0,4.2,0.8,7.5,2.2,10s3.8,4.4,7,5.8c2.2,1,4.7,1.9,7.5,2.7c2.8,0.8,6,1.6,9.7,2.5
				c3.3,0.8,6.5,1.6,9.7,2.4c3.2,0.8,6,1.9,8.4,3.2s4.4,3.1,6,5.1c1.5,2.1,2.3,4.8,2.3,8.2c0,3.3-0.8,6.1-2.3,8.4
				c-1.5,2.3-3.5,4.2-5.9,5.6c-2.4,1.4-5,2.5-8,3.1s-5.8,1-8.6,1c-9,0-16-2-20.8-6c-4.8-4-7.2-10.3-7.2-19h-3
				c0,9.6,2.6,16.7,7.8,21.2c5.2,4.5,12.9,6.7,23.2,6.7c3.3,0,6.6-0.4,9.9-1.1c3.3-0.8,6.3-2,8.9-3.6c2.6-1.7,4.8-3.9,6.4-6.6
				c1.6-2.7,2.5-6,2.5-9.8c0-3.7-0.7-6.6-2.2-8.9s-3.3-4.2-5.7-5.7c-2.3-1.5-5-2.7-7.9-3.5c-2.9-0.8-5.9-1.7-8.9-2.5
				c-3.6-1-7.3-1.9-11-2.8c-3.1-0.8-6-1.7-8.7-2.8c-2.6-1.1-4.7-2.7-6.2-4.7c-1.5-2-2.3-4.9-2.3-8.7c0-0.7,0.2-1.9,0.6-3.7
				c0.4-1.8,1.3-3.6,2.8-5.4c1.5-1.8,3.8-3.5,6.9-4.9c3.1-1.4,7.3-2.2,12.7-2.2c3.7,0,7,0.4,10.1,1.2c3,0.8,5.6,2.1,7.8,3.8
				c2.2,1.7,3.9,4,5.1,6.6C2271.9,669.9,2272.5,673.2,2272.5,677.1L2272.5,677.1z M2341.5,677.1h3c0-8.5-2.5-14.7-7.5-18.6
				c-5-3.9-11.7-5.8-20.3-5.8c-4.8,0-8.8,0.6-12.1,1.8c-3.3,1.2-6,2.7-8,4.6c-2.1,1.9-3.6,4-4.5,6.3c-0.9,2.3-1.3,4.5-1.3,6.6
				c0,4.2,0.8,7.5,2.2,10s3.8,4.4,7,5.8c2.2,1,4.7,1.9,7.5,2.7s6,1.6,9.7,2.5c3.3,0.8,6.5,1.6,9.7,2.4c3.2,0.8,6,1.9,8.4,3.2
				s4.4,3.1,6,5.1c1.5,2.1,2.3,4.8,2.3,8.2c0,3.3-0.8,6.1-2.3,8.4c-1.5,2.3-3.5,4.2-5.9,5.6c-2.4,1.4-5,2.5-8,3.1
				c-2.9,0.6-5.8,1-8.6,1c-9,0-16-2-20.8-6c-4.8-4-7.2-10.3-7.2-19h-3c0,9.6,2.6,16.7,7.8,21.2c5.2,4.5,12.9,6.7,23.2,6.7
				c3.3,0,6.6-0.4,9.9-1.1c3.3-0.8,6.3-2,8.9-3.6c2.6-1.7,4.8-3.9,6.4-6.6c1.6-2.7,2.5-6,2.5-9.8c0-3.7-0.7-6.6-2.2-8.9
				c-1.4-2.3-3.3-4.2-5.7-5.7c-2.3-1.5-5-2.7-7.9-3.5c-2.9-0.8-5.9-1.7-8.9-2.5c-3.6-1-7.3-1.9-11-2.8c-3.1-0.8-6-1.7-8.7-2.8
				c-2.6-1.1-4.7-2.7-6.2-4.7c-1.5-2-2.3-4.9-2.3-8.7c0-0.7,0.2-1.9,0.6-3.7c0.4-1.8,1.3-3.6,2.8-5.4c1.5-1.8,3.8-3.5,6.9-4.9
				c3.1-1.4,7.3-2.2,12.7-2.2c3.7,0,7,0.4,10.1,1.2c3,0.8,5.6,2.1,7.8,3.8c2.2,1.7,3.9,4,5.1,6.6
				C2340.9,669.9,2341.5,673.2,2341.5,677.1L2341.5,677.1z"/>
		</g>
	</g>
</g>
<path class="st14" d="M2227.8,1310.1c33.2,0,60.1-26.9,60.1-60.1v-60.1h-60.1c-33.2,0-60.1,26.9-60.1,60.1
	S2194.6,1310.1,2227.8,1310.1z"/>
<path class="st15" d="M2167.6,1129.8c0-33.2,26.9-60.1,60.1-60.1h60.1v120.2h-60.1C2194.6,1189.9,2167.6,1162.9,2167.6,1129.8z"/>
<path class="st16" d="M2167.6,1009.5c0-33.2,26.9-60.1,60.1-60.1h60.1v120.2h-60.1C2194.6,1069.6,2167.6,1042.7,2167.6,1009.5z"/>
<path class="st17" d="M2287.9,949.4h60.1c33.2,0,60.1,26.9,60.1,60.1c0,33.2-26.9,60.1-60.1,60.1h-60.1V949.4z"/>
<path class="st18" d="M2408.1,1129.8c0,33.2-26.9,60.1-60.1,60.1s-60.1-26.9-60.1-60.1s26.9-60.1,60.1-60.1
	S2408.1,1096.6,2408.1,1129.8z"/>
<path class="st19" d="M632.6,394.3L420.6,182.4c-12.2-12.2-32-12.2-44.2,0l-44,44l55.8,55.8c13-4.4,27.8-1.4,38.2,8.9
	c10.4,10.4,13.3,25.4,8.8,38.4l53.8,53.8c13-4.5,28-1.6,38.4,8.8c14.5,14.5,14.5,38.1,0,52.6c-14.5,14.6-38.1,14.6-52.6,0
	c-10.9-11-13.6-27-8.1-40.5l-50.2-50.1v132.1c3.6,1.8,7,4.2,9.8,7c14.5,14.5,14.5,38.1,0,52.6c-14.5,14.5-38.1,14.5-52.6,0
	c-14.5-14.6-14.5-38.1,0-52.6c3.5-3.5,7.6-6.2,12.2-8.1V351.8c-4.6-1.9-8.7-4.6-12.2-8.1c-11-11-13.7-27.2-8-40.7l-55-55
	L165.5,393.3c-12.2,12.2-12.2,32,0,44.2l211.9,211.9c12.2,12.2,32,12.2,44.2,0l211-211C644.7,426.3,644.7,406.5,632.6,394.3"/>
<g>
	<path class="st20" d="M837.4,504.8c-113.3,0-205.2,91.9-205.2,205.2c0,90.7,58.8,167.6,140.3,194.7c10.2,1.9,14-4.5,14-9.9
		c0-4.9-0.2-21.1-0.3-38.2c-57.1,12.4-69.1-24.2-69.1-24.2c-9.3-23.7-22.8-30-22.8-30c-18.6-12.7,1.4-12.5,1.4-12.5
		c20.6,1.4,31.5,21.1,31.5,21.1c18.3,31.4,48,22.3,59.7,17.1c1.8-13.3,7.2-22.3,13-27.4c-45.6-5.2-93.5-22.8-93.5-101.4
		c0-22.4,8-40.7,21.1-55.1c-2.1-5.2-9.2-26.1,2-54.3c0,0,17.2-5.5,56.4,21c16.4-4.6,33.9-6.8,51.4-6.9c17.4,0.1,35,2.4,51.4,6.9
		c39.2-26.5,56.4-21,56.4-21c11.2,28.3,4.2,49.1,2,54.3c13.2,14.4,21.1,32.7,21.1,55.1c0,78.8-48,96.2-93.7,101.2
		c7.4,6.4,13.9,18.9,13.9,38c0,27.5-0.2,49.6-0.2,56.3c0,5.5,3.7,11.9,14.1,9.8c81.5-27.2,140.2-104.1,140.2-194.7
		C1042.6,596.7,950.7,504.8,837.4,504.8"/>
	<path class="st20" d="M709,797.1c-0.5,1-2.1,1.3-3.5,0.6c-1.5-0.7-2.3-2.1-1.8-3.1c0.4-1,2.1-1.4,3.5-0.6
		C708.7,794.7,709.5,796.1,709,797.1 M719.1,806.1c-1,0.9-2.9,0.5-4.2-1c-1.4-1.4-1.6-3.4-0.6-4.3c1-0.9,2.9-0.5,4.2,1
		C719.9,803.3,720.1,805.2,719.1,806.1 M726.1,817.7c-1.3,0.9-3.3,0.1-4.6-1.8c-1.3-1.8-1.3-4,0-4.9c1.3-0.9,3.3-0.1,4.6,1.7
		C727.3,814.6,727.3,816.8,726.1,817.7 M737.7,831c-1.1,1.2-3.5,0.9-5.3-0.8c-1.8-1.7-2.3-4-1.2-5.2c1.1-1.2,3.5-0.9,5.3,0.8
		C738.4,827.4,738.9,829.8,737.7,831 M752.9,835.5c-0.5,1.6-2.8,2.3-5.1,1.7c-2.3-0.7-3.8-2.6-3.4-4.2c0.5-1.6,2.8-2.4,5.1-1.7
		C751.9,832,753.4,833.9,752.9,835.5 M770.1,837.4c0.1,1.7-1.9,3.1-4.4,3.1c-2.5,0.1-4.4-1.3-4.5-3c0-1.7,1.9-3.1,4.4-3.1
		C768.1,834.4,770.1,835.7,770.1,837.4 M787,836.8c0.3,1.7-1.4,3.4-3.8,3.8c-2.4,0.4-4.6-0.6-4.9-2.2c-0.3-1.7,1.4-3.4,3.8-3.8
		C784.6,834.1,786.7,835.1,787,836.8"/>
</g>
<path class="st21" d="M944.4,1383.4l-157.7,43.7l-157.3-43.7l-35-393h385.1"/>
<path class="st22" d="M944.3,1022.5H786.9v371.2l127.4-35.3"/>
<path class="st2" d="M907.5,1070.7H786.7v48.2h116.4 M898.8,1168.3H786.7v175.4l98.8-27.4 M786.7,1216.5h59.4l-5.6,62.5l-53.8,14.5"
	/>
<path class="st12" d="M679,1216.5h107.9v-48.2h-63.8l-4.4-49.4h68.2v-48.2H666 M687.9,1316.3l98.8,27.4l0.2,0v-50.1l-0.2,0
	l-53.8-14.5l-3.4-38.5h-48.4"/>
<path class="st23" d="M1287.2,1151.4c0.6-1.1,1.1-2,1.6-3c0.3-0.6,0.7-0.8,1.4-0.7c3.8,0.1,7.5,0.2,11.3,0.3c3.2,0,6.4,0,9.6-0.1
	c3.6,0,7.2-0.2,10.8-0.1c4.8,0.1,9.5,1.1,13.8,3.2c5.2,2.5,9.1,6.4,11.8,11.5c1.7,3.3,2.7,6.7,3.1,10.4c0.6,5.3,0.2,10.5-1.5,15.6
	c-2.1,6.3-6.1,11.2-11.6,14.8c-4.3,2.8-8.9,4.4-13.9,5.4c-5.3,1-10.6,0.7-15.9,0.7c-5.8,0-11.6-0.1-17.5-0.2c-1,0-1.2-0.2-0.9-1.2
	l0.2-0.9c0.6-1.8,0.9-1.9,2.7-2.2c1.3-0.2,2.6-0.7,3.6-1.4c0.6-0.4,0.9-1.5,1.1-2.3c0.2-0.7,0.2-1.5,0.2-2.2
	c0.1-11.4,0.2-22.7,0.2-34c0-2.9-0.1-5.7-0.2-8.6c-0.1-2-1.2-3.4-3.6-3.9c-1.9-0.4-3.7-0.7-5.6-1L1287.2,1151.4L1287.2,1151.4z
	 M1340.4,1178.9c-0.3-2.3-0.4-4.5-0.8-6.8c-1-5.3-3.3-10-7.4-13.7c-6.6-5.9-14.6-6.8-23-6.1c-1.9,0.2-2.3,0.8-2.3,2.8
	c0,2.8-0.1,5.6-0.1,8.4c0,8.8,0,17.7,0,26.5c0,2.5,0,5,0.1,7.5c0.1,2.6,1,4.7,3.5,5.7c4,1.6,8.1,1.8,12.3,1.1
	c6.6-1,11.3-4.9,14.4-10.7C1339.5,1189,1340.2,1184,1340.4,1178.9L1340.4,1178.9z M1356.6,1208.9c-0.1-1.4,0.5-2.5,1.2-3.6
	c0.2-0.3,0.8-0.3,1.3-0.4l3.8-0.8c1.3-0.3,2-1.2,2.2-2.5c0.1-0.9,0.2-1.7,0.3-2.6c0.1-7,0.2-13.9,0.2-20.9c0-7,0-13.9,0-20.9l0-1.3
	c-0.1-2.2-1.2-3.4-3.4-3.7l-4.8-0.7c-0.6-0.1-0.8-0.4-0.6-0.9c0.4-0.9,0.7-1.8,1.2-2.6c0.2-0.3,0.9-0.4,1.3-0.4
	c2.3,0,4.6,0.2,6.9,0.2l20-0.1c3.9,0,7.6,0.7,11,2.5c3.8,2,5.9,5.2,6.5,9.4c0.6,4.5-0.7,8.3-4,11.3c-1.3,1.2-3.1,2-4.7,3.1l-0.5,0.3
	c1.5,0.5,2.8,1,4.2,1.5c3.9,1.6,7.1,4.1,8.7,8.2c1.3,3.2,1.3,6.5,0.5,9.8c-1.2,5.2-4.6,8.6-9,11.2c-4.1,2.4-8.6,3.9-13.4,4.1
	c-4.4,0.2-8.8,0.1-13.3,0.2l-2.6,0c-4.3-0.1-8.5-0.2-12.8-0.3L1356.6,1208.9L1356.6,1208.9z M1374.9,1188.7L1374.9,1188.7
	c0,2.2,0,4.4,0.1,6.5c0,1.4,0,2.9,0.3,4.2c0.5,2,1.4,3.9,3.7,4.4c3.1,0.8,6.2,1,9.3,0.4c3.9-0.7,7-2.6,8.7-6.4
	c1.3-2.8,1.5-5.7,1-8.7c-0.6-3.9-2.7-6.8-6.1-8.7c-2.3-1.2-4.7-2-7.3-2.1c-2.9-0.1-5.8-0.1-8.7-0.2c-0.8,0-0.9,0.4-0.9,1.1
	C1374.9,1182.5,1374.9,1185.6,1374.9,1188.7L1374.9,1188.7z M1381.1,1173.9c1.6-0.1,3.4-0.1,5.2-0.3c3.4-0.3,5.8-2.1,7.1-5.3
	c0.6-1.7,0.6-3.4,0.6-5.1c0-4.5-2.6-8.2-6.8-9.7c-3.3-1.2-6.7-1.2-10.1-1.1c-1.4,0-2,0.6-2,2l-0.2,18.2c0,0.7,0.3,1,1,1.1
	C1375.8,1173.7,1381.1,1173.9,1381.1,1173.9z"/>
<path class="st24" d="M1032.9,1205.4l-0.2,3.1c-2.3,0-4.3,0-6.4,0c-3.9,0-7.8,0.1-11.7,0.2l-0.4,0c-0.6-0.1-1.6-0.1-1.6-0.2
	c-0.2-0.9-0.1-1.9-0.1-2.9c0-0.1,0.4-0.2,0.6-0.3l3-0.7c1.9-0.5,2.6-1.3,2.7-3.3c0.1-2.2,0.2-4.4,0.2-6.6c0-5.4,0-10.9,0-16.3
	c0-1.3-0.4-2.2-1.6-2.7c-1.4-0.6-2.8-1.2-4.3-1.8c-0.7-0.3-1.6-0.4-1.5-1.3c0.1-0.9,0.9-1.2,1.7-1.3c3.3-0.8,6.6-1.5,10-2.3
	c1.1-0.3,2.1-0.7,3.4-1.1c0.1,0.7,0.2,1.3,0.2,2l-0.2,3.1c0,0.4,0.2,0.8,0.4,1c0.2,0.1,0.7-0.1,1-0.3c2.8-2.2,5.8-4,9.2-5.1
	c5.3-1.7,9.8-0.1,13,4.4c1.1,1.6,1.1,1.6,2.7,0.5c2.7-1.9,5.5-3.6,8.6-4.8c6.9-2.5,13.4,0.7,15.8,7.6c0.9,2.5,1.2,5.1,1.2,7.7
	l-0.1,17.6c0,1.4,0.5,2.3,1.9,2.7c1.5,0.5,3.2,0.9,4.9,1.3l-0.4,3c-2,0-3.8,0-5.6,0c-4.5,0-8.9,0.1-13.4,0.2c-0.8,0-1-0.2-1-0.9
	c-0.1-2.3-0.1-2.3,2-2.8l0.7-0.2c2.1-0.6,2.9-1.2,2.9-3.4c0-6.2,0.2-12.5-0.1-18.7c-0.3-6.4-5.4-9.9-11.7-8.2
	c-2,0.5-3.9,1.5-5.6,2.7c-0.6,0.4-0.7,0.9-0.6,1.6c0.2,2.7,0.3,5.5,0.3,8.2c0,4.8,0,9.6,0,14.4c0,1.9,0.7,2.7,2.6,3.1l2.9,0.7
	l0.5,0.1c0,0.9,0.1,1.8,0,2.7c0,0.6-0.5,0.6-1,0.6c-2.8-0.1-5.6-0.2-8.3-0.2c-3.4,0-6.8,0.1-10.1,0.2h-0.8c0-1,0-1.9,0-2.8
	c0-0.2,0.4-0.5,0.7-0.6l3.3-0.7c1.4-0.3,2.1-1.1,2.2-2.5c0.4-6.7,0.6-13.3,0-20c-0.1-1.3-0.5-2.6-1.1-3.8c-1.7-3.8-5.5-5.3-10-4.2
	c-2.1,0.5-4,1.5-5.8,2.7c-0.8,0.6-1.3,1.3-1.3,2.3c0,6.6,0,13.3,0,19.9l0,2.6c0,1.8,0.8,2.7,2.6,3.1
	C1030.4,1205,1031.6,1205.2,1032.9,1205.4L1032.9,1205.4z"/>
<path class="st25" d="M1233.3,1168.4c0.5,2.5,0.5,4.7-1.3,6.5c-1.8,1.7-4.1,1.1-6.4,0.7c0.2,1.2,0.4,2.2,0.6,3.2
	c0.8,7.6-2.4,13.2-9.5,16.4c-2.7,1.2-5.5,1.7-8.4,1.9c-1.4,0.1-2.7,1.2-2.8,2.4c-0.1,1.2,0.6,2.4,2.1,2.8c1.8,0.4,3.6,0.5,5.4,0.7
	c3.9,0.4,7.8,0.6,11.7,1.3c5.8,1,9.1,6.1,8,12c-0.9,5.2-3.9,9-8.1,11.9c-7.1,4.9-14.8,6.3-23.1,3.8c-4.7-1.4-8.1-4.5-9.2-9.6
	c-0.6-2.5,0-4.8,1.9-6.5c2.3-2,4.7-3.8,7.1-5.7l0.8-0.8l-0.9-0.6c-2.4-1.1-4.3-2.7-5.1-5.4c-0.3-0.9,0-1.5,0.8-2
	c1.3-0.8,2.6-1.6,4-2.4c0.6-0.4,1.2-0.8,1.8-1.2c0.8-0.6,0.7-1-0.2-1.4c-2.2-0.8-4.1-2-5.6-3.8c-2.5-3-3.2-6.5-3-10.3
	c0.3-5.9,3.5-9.7,8.7-12.2c6.2-3,12.3-3.1,18.6-0.4c2.3,1,4.8,1.2,7.3,1C1230.2,1170.7,1231.8,1170,1233.3,1168.4L1233.3,1168.4z
	 M1210.6,1210.5c-4.6,0-6.1,0.5-8.8,3.3c-3,3.1-3,7.4,0,10.5c2.3,2.4,5.2,3.5,8.4,3.8c3.7,0.4,7.4,0.2,10.8-1.6
	c3.6-2,5.4-5.7,4.6-9.4c-0.7-3.1-2.9-4.5-5.7-5.3C1216.7,1210.7,1213.4,1210.6,1210.6,1210.5z M1201.5,1180.9
	c0.2,1.3,0.2,2.6,0.5,3.8c0.7,3.3,2.2,6.1,5.4,7.6c3.8,1.7,8.7,1,10.3-4.4c1.1-3.7,1-7.3-0.4-10.9c-0.6-1.6-1.6-2.9-3-3.9
	c-3.3-2.3-9.3-2.6-11.7,2.5C1201.9,1177.3,1201.6,1179.1,1201.5,1180.9z"/>
<path class="st26" d="M1154.9,1167.6c0.1,0.6,0.4,1.2,0.4,1.9c0,1.2-0.1,2.5-0.2,3.7v1.1l1-0.8c2.9-2.3,5.9-4.3,9.5-5.4
	c6.4-1.9,12.9,1.6,15,8.1c0.8,2.5,1.1,5.1,1.1,7.7c0.1,5.8,0.1,11.6,0.2,17.4c0,2.1,0.3,2.4,2.2,3c1.1,0.3,2.3,0.6,3.4,0.8
	c0.6,0.1,0.9,0.3,0.9,1l0,0.6c0,2.4-0.2,2.5-2.5,2.5c-5.6,0-11.1,0-16.7,0.1c-1.7,0-1.7,0.1-1.8-1.6l0-0.9c0.1-1.4,0.1-1.4,1.5-1.6
	c0.9-0.1,1.9-0.4,2.8-0.6c0.9-0.2,1.4-0.9,1.5-1.9c0.1-0.5,0.1-0.9,0.1-1.4c-0.1-6.3,0-12.7-0.3-19c-0.3-5.1-4.2-8.2-9.3-7.8
	c-2.5,0.2-4.8,1-6.9,2.5c-1.4,1-1.6,2.3-1.6,3.8c0,5.9,0.1,11.8,0.1,17.7c0,1.3,0,2.6,0.2,3.9c0.1,1.4,0.6,2,2,2.3
	c1.3,0.3,2.7,0.5,4.1,0.7l0.1,1.1c0,2.5-0.2,2.7-2.7,2.7c-5.8,0-11.5,0-17.2,0.1c-0.9,0-1.3-0.3-1.3-1.2l0-0.4
	c-0.1-2.3-0.1-2.4,2.1-2.7l1-0.2c2.3-0.5,2.9-1.2,3-3.5c0.1-7.5,0.1-15.1,0.2-22.6c0-1.1-0.4-1.9-1.4-2.4c-1.4-0.6-2.8-1.2-4.3-1.8
	c-0.8-0.3-1.7-0.5-1.7-1.6c0-0.8,0.8-1.4,1.9-1.7c2.3-0.5,4.5-0.8,6.8-1.4C1150.3,1169.1,1152.4,1168.3,1154.9,1167.6z"/>
<path class="st25" d="M1279.2,1187.3c-0.1,7-1.9,12.7-6.9,17c-6.3,5.4-16.1,7.3-24.2,3.2c-3.4-1.7-5.9-4.4-7.6-7.8
	c-2.5-5.3-3.1-10.8-1.8-16.5c1.3-5.6,4.7-9.7,9.8-12.4c5.3-2.7,10.8-3.8,16.6-2.3c7.4,1.8,12.7,7.8,13.7,15.5
	C1279.1,1185.2,1279.2,1186.6,1279.2,1187.3z M1270.7,1191.1l-0.3,0c0-0.7,0-1.3,0-2c-0.2-4.1-1.2-8.1-3.6-11.5
	c-2.3-3.3-5.4-5.2-9.4-5.5c-4.5-0.3-8.3,2.2-9.6,6.8c-2,6.9-1.3,13.6,2.2,20c1.5,2.8,3.8,4.8,6.8,5.9c5.9,2.1,11.2-0.6,12.8-6.7
	C1270.2,1195.7,1270.3,1193.4,1270.7,1191.1z"/>
<path class="st26" d="M1133.2,1187.8c-0.1,5-1.3,9.7-4.4,13.8c-3.3,4.3-7.9,6.7-13.1,7.6c-6.2,1.2-12,0.1-16.9-4c-2.4-2-4-4.5-5-7.4
	c-1.7-4.7-2.2-9.5-1.1-14.4c1.1-5.3,4.1-9.3,8.7-12c5.3-3.1,11.1-4.5,17.2-3.1c7.9,1.8,12.4,6.9,14.1,14.7
	C1133,1184.6,1133,1186.2,1133.2,1187.8z M1124.6,1191.1l-0.2,0v-0.9c-0.1-4.6-1-9-3.8-12.9c-2-2.9-4.8-4.6-8.3-5.1
	c-5.7-0.8-9.5,2.6-10.7,7.2c-1.6,6-1.1,12,1.4,17.7c1.6,3.6,4,6.3,7.8,7.7c5.9,2.1,11.3-0.7,12.8-6.7
	C1124.1,1195.7,1124.2,1193.4,1124.6,1191.1z"/>
<path class="st27" d="M1270.9,930.6c4.1,11.8,7,23.8,8,36.2c1.2,15.4,0.6,30.8-2.6,45.9l-0.4,1.2c-1,0-2.1-0.1-3.1,0
	c-8.4,1.3-16.8,2.7-25.3,4.1c-8.7,1.4-17.4,2.8-26.1,4.3c-3.1,0.5-6.9-0.1-8.1,4.2l-0.6,0.2l0.4-25.4l-0.4-61.4l4.1-0.7
	c6.6-1.1,13.3-2.2,19.9-3.2c7.9-1.3,15.9-2.5,23.8-3.7C1263.9,931.7,1267.4,931.2,1270.9,930.6z"/>
<path class="st28" d="M1204.3,1100.9c-4.3-3.7-8.7-7.2-12.8-11.1c-22.1-20.8-38.2-45.3-46.2-74.9c-2.2-8.1-3.6-16.4-4.1-24.8
	c-0.3-5.9-0.8-11.8-0.4-17.7c1.1-15.6,3.4-31,7.9-45.9l0.3-0.3c0.4,0.6,1.1,1.1,1.3,1.8c4.5,13.1,8.9,26.2,13.3,39.4
	c13.8,41.3,27.6,82.6,41.5,123.8c0.3,0.8,1,1.5,1.5,2.2C1206.5,1093.4,1204.3,1100.9,1204.3,1100.9z"/>
<path class="st29" d="M1270.9,930.6c-3.5,0.5-7,1-10.5,1.6c-7.9,1.2-15.9,2.5-23.8,3.7c-6.6,1.1-13.3,2.2-19.9,3.2l-4.1,0.7l0-2.6
	c-0.1-2.2-0.4-4.3-0.4-6.5l-0.5-41.6c-0.1-8.7-0.3-17.4-0.4-26c-0.1-5.4-0.2-10.8-0.5-16.2c-0.1-2.9-0.6-5.8-0.8-8.7
	c-0.1-1.7,0-3.3,0.1-5c2.1,4,4.1,8,6.2,12c3.4,6.3,8.7,10.9,13.5,16C1249,881.2,1262.5,904.4,1270.9,930.6z"/>
<path class="st30" d="M1212.7,1026.7l0.6-0.2c1.2-4.3,5.1-3.6,8.1-4.2c8.7-1.5,17.4-2.9,26.1-4.3c8.4-1.4,16.8-2.7,25.3-4.1
	c1-0.2,2,0,3.1,0c-1.6,5.6-2.8,11.4-4.8,16.8c-2.3,6.2-5,12.3-7.9,18.2c-4.4,8.9-9.8,17.1-16.1,24.7c-4.9,5.8-10.3,11.2-15.7,16.6
	c-3,2.9-6.5,5.3-9.8,8l-0.9-0.6l-3.1-2.6l-3.2-7c-2.2-8.2-3.3-16.5-3.5-24.9l0.1-1.4l0.4-6.1c0.1-2.1,0.3-4.2,0.4-6.3
	C1212.1,1041.8,1212.4,1034.3,1212.7,1026.7L1212.7,1026.7z"/>
<path class="st31" d="M1212.7,1026.7c-0.3,7.6-0.6,15.1-0.9,22.7c-0.1,2.1-0.3,4.2-0.4,6.3l-1.9,0.7c-4.3-12.7-8.6-25.2-12.8-37.8
	c-7-20.8-13.8-41.6-20.8-62.4c-5.6-16.8-11.3-33.5-17-50.3c-0.3-0.8-1-1.4-1.6-2.1l12.4-22.8c0.4,0.7,1,1.4,1.3,2.2
	c5.7,17,11.5,33.9,17.1,50.9c7.4,22.1,14.7,44.2,22.1,66.3c0.3,0.9,0.8,1.7,1.2,2.7l1.7-2C1213,1009.7,1212.8,1018.2,1212.7,1026.7
	L1212.7,1026.7z"/>
<path class="st32" d="M1157.3,903.8c0.5,0.7,1.3,1.3,1.6,2.1c5.7,16.8,11.4,33.5,17,50.3c7,20.8,13.8,41.6,20.8,62.4
	c4.2,12.6,8.5,25.1,12.8,37.8l1.9-0.7l-0.4,6.1l-0.4,1.4c-0.7,6.7-1.2,13.5-2.1,20.2c-0.4,3.4-1.3,6.7-2,10
	c-0.5-0.7-1.2-1.4-1.5-2.2c-13.8-41.3-27.6-82.5-41.5-123.8c-4.4-13.1-8.8-26.3-13.3-39.4c-0.2-0.7-0.9-1.2-1.3-1.8L1157.3,903.8
	L1157.3,903.8z"/>
<path class="st33" d="M1213.1,1001.3l-1.7,2c-0.5-1-0.9-1.8-1.2-2.7c-7.4-22.1-14.7-44.2-22.1-66.3c-5.7-17-11.4-34-17.1-50.9
	c-0.3-0.8-0.8-1.5-1.3-2.2l15.3-20.2c0.5,0.6,1.2,1.2,1.4,1.9c4.3,12.5,8.5,24.9,12.7,37.4c3.9,11.7,7.8,23.3,11.7,35
	c0.3,0.8,1.2,1.3,1.8,2l0,2.6L1213.1,1001.3z"/>
<path class="st34" d="M1212.6,937.2c-0.6-0.7-1.5-1.2-1.8-2c-4-11.6-7.8-23.3-11.7-35c-4.2-12.5-8.4-25-12.7-37.4
	c-0.2-0.7-0.9-1.3-1.4-1.9c5-4.9,9.8-9.9,15-14.6c4.6-4.1,8.3-8.6,8.5-15.1l0.4-1.3l1.3,3.3c0,1.7-0.2,3.3-0.1,5
	c0.2,2.9,0.7,5.8,0.8,8.7c0.2,5.4,0.4,10.8,0.5,16.2c0.2,8.7,0.3,17.4,0.4,26l0.5,41.6C1212.3,932.9,1212.5,935,1212.6,937.2z"/>
<path class="st35" d="M1206.5,1093.4c0.7-3.3,1.5-6.6,2-10c0.8-6.7,1.4-13.5,2.1-20.2l0.2,0l0.2,0c0.2,8.4,1.3,16.8,3.5,24.9
	c-0.4,0.6-1.1,1.1-1.3,1.8c-1.8,5.2-3.6,10.4-5.4,15.6c-0.3,0.7-1,1.3-1.5,1.9l-1.9-6.5C1204.3,1100.9,1206.5,1093.4,1206.5,1093.4z
	"/>
<path class="st36" d="M1206.2,1107.4c0.5-0.6,1.2-1.2,1.5-1.9c1.8-5.2,3.6-10.4,5.4-15.6c0.2-0.7,0.9-1.2,1.3-1.8l3.2,7
	c-0.6,0.9-1.5,1.7-1.8,2.7l-6.1,17.9c-0.3,0.7-1.1,1.2-1.7,1.8L1206.2,1107.4z"/>
<path class="st37" d="M1208,1117.5c0.6-0.6,1.4-1.1,1.7-1.8l6.1-17.9c0.3-1,1.2-1.8,1.8-2.7l3.1,2.6c-1.5,1.5-2.3,3.2-1.8,5.3
	l-0.9,3.1c-0.4,0.5-1,1-1.2,1.6c-2.1,6.1-4.1,12.2-6.3,18.3c-0.3,0.8-1,1.4-1.6,2.1C1208.8,1128,1208,1117.5,1208,1117.5z"/>
<path class="st38" d="M1208.8,1128c0.5-0.7,1.3-1.3,1.6-2.1c2.1-6.1,4.2-12.2,6.3-18.3c0.2-0.6,0.8-1.1,1.2-1.6l-1.3,14
	c-0.3,0.4-0.8,0.7-1,1.2l-4.3,12.3c-0.3,0.8-0.9,1.6-1.3,2.4c-0.4-0.5-1.1-1-1.2-1.6C1208.7,1132.3,1208.8,1130.2,1208.8,1128z"/>
<path class="st39" d="M1210,1136c0.5-0.8,1-1.5,1.3-2.4l4.3-12.3c0.2-0.5,0.7-0.8,1-1.2l0,9.2l-3.1,7.9L1210,1136z"/>
<path class="st40" d="M1213.6,1137.3l3.1-7.9l0.6,9.4L1213.6,1137.3z"/>
<path class="st38" d="M1218.8,1103c-0.5-2.1,0.3-3.8,1.8-5.3l0.9,0.6C1221.5,1098.3,1218.8,1103,1218.8,1103z"/>
<path class="st31" d="M1210.9,1063.2l-0.2,0l-0.2,0l0.4-1.4L1210.9,1063.2z"/>
<g>
	<path class="st41" d="M1684.7,2425.2c-2.2,0-4.3-0.6-6.3-1.6l-19.8-11.8c-3-1.6-1.5-2.2-0.6-2.5c4-1.3,4.8-1.6,8.9-4
		c0.4-0.3,1-0.1,1.5,0.1l15.2,9.1c0.6,0.3,1.3,0.3,1.8,0l59.5-34.4c0.6-0.3,0.9-0.9,0.9-1.6v-68.7c0-0.7-0.3-1.3-0.9-1.6l-59.5-34.3
		c-0.6-0.3-1.3-0.3-1.8,0l-59.5,34.3c-0.6,0.3-0.9,1-0.9,1.6v68.7c0,0.6,0.3,1.3,0.9,1.6l16.3,9.4c8.8,4.5,14.3-0.7,14.3-6v-67.9
		c0-0.9,0.7-1.8,1.8-1.8h7.6c0.9,0,1.8,0.7,1.8,1.8v67.9c0,11.8-6.4,18.6-17.6,18.6c-3.4,0-6.1,0-13.7-3.7l-15.7-8.9
		c-3.9-2.2-6.3-6.4-6.3-10.9v-68.7c0-4.5,2.4-8.6,6.3-10.9l59.5-34.4c3.7-2.1,8.8-2.1,12.5,0l59.5,34.4c3.9,2.2,6.3,6.4,6.3,10.9
		v68.7c0,4.5-2.4,8.6-6.3,10.9l-59.5,34.4C1689,2424.8,1686.8,2425.2,1684.7,2425.2L1684.7,2425.2z M1703,2378
		c-26.1,0-31.5-11.9-31.5-22.1c0-0.9,0.7-1.8,1.8-1.8h7.8c0.9,0,1.6,0.6,1.6,1.5c1.2,7.9,4.6,11.8,20.4,11.8
		c12.5,0,17.9-2.8,17.9-9.5c0-3.9-1.5-6.7-21-8.6c-16.3-1.6-26.4-5.2-26.4-18.2c0-12.1,10.1-19.2,27.1-19.2
		c19.1,0,28.5,6.6,29.7,20.9c0,0.4-0.1,0.9-0.4,1.3c-0.3,0.3-0.7,0.6-1.2,0.6h-7.8c-0.7,0-1.5-0.6-1.6-1.3
		c-1.8-8.2-6.4-10.9-18.6-10.9c-13.7,0-15.4,4.8-15.4,8.4c0,4.3,1.9,5.7,20.4,8.1c18.3,2.4,27,5.8,27,18.6
		C1732.7,2370.5,1722,2378,1703,2378z"/>
	<path class="st42" d="M1500.1,2156.4c0-2.7-1.5-5.2-3.9-6.6l-63.2-36.4c-1-0.6-2.2-0.9-3.4-1h-0.6c-1.2,0-2.4,0.4-3.4,1l-63.2,36.4
		c-2.4,1.3-3.9,3.9-3.9,6.6l0.1,97.8c0,1.3,0.7,2.7,1.9,3.3c1.2,0.7,2.7,0.7,3.7,0l37.6-21.5c2.4-1.3,3.9-3.9,3.9-6.6v-45.8
		c0-2.7,1.5-5.2,3.9-6.6l16-9.2c1.2-0.7,2.5-1,3.9-1s2.7,0.3,3.7,1l16,9.2c2.4,1.3,3.9,3.9,3.9,6.6v45.8c0,2.7,1.5,5.2,3.9,6.6
		l37.6,21.5c1.2,0.7,2.7,0.7,3.9,0c1.2-0.6,1.9-1.9,1.9-3.3C1500.2,2254.2,1500.1,2156.4,1500.1,2156.4z M1804,2021.7
		c-1.2-0.6-2.7-0.6-3.7,0c-1.2,0.7-1.9,1.9-1.9,3.3v96.9c0,0.9-0.4,1.8-1.3,2.4c-0.9,0.4-1.8,0.4-2.7,0l-15.8-9.1
		c-2.4-1.3-5.2-1.3-7.6,0l-63.2,36.5c-2.4,1.3-3.9,3.9-3.9,6.6v72.9c0,2.7,1.5,5.2,3.9,6.6l63.2,36.5c2.4,1.3,5.2,1.3,7.6,0
		l63.2-36.5c2.4-1.3,3.9-3.9,3.9-6.6v-181.8c0-2.8-1.5-5.4-3.9-6.7L1804,2021.7L1804,2021.7z M1798.2,2207.2c0,0.7-0.3,1.3-0.9,1.6
		l-21.6,12.5c-0.6,0.3-1.3,0.3-1.9,0l-21.6-12.5c-0.6-0.3-0.9-1-0.9-1.6v-25.1c0-0.7,0.3-1.3,0.9-1.6l21.6-12.5
		c0.6-0.3,1.3-0.3,1.9,0l21.6,12.5c0.6,0.3,0.9,1,0.9,1.6V2207.2L1798.2,2207.2z M2014.4,2181.6c2.4-1.3,3.7-3.9,3.7-6.6v-17.7
		c0-2.7-1.5-5.2-3.7-6.6l-62.8-36.4c-2.4-1.3-5.2-1.3-7.6,0l-63.2,36.5c-2.4,1.3-3.9,3.9-3.9,6.6v72.9c0,2.7,1.5,5.2,3.9,6.6
		l62.8,35.8c2.4,1.3,5.2,1.3,7.5,0l38-21.2c1.2-0.6,1.9-1.9,1.9-3.3s-0.7-2.7-1.9-3.3l-63.5-36.5c-1.2-0.7-1.9-1.9-1.9-3.3v-22.8
		c0-1.3,0.7-2.7,1.9-3.3l19.8-11.3c1.2-0.7,2.7-0.7,3.9,0l19.8,11.3c1.2,0.7,1.9,1.9,1.9,3.3v17.9c0,1.3,0.7,2.7,1.9,3.3
		c1.2,0.7,2.7,0.7,3.9,0L2014.4,2181.6L2014.4,2181.6z"/>
	<path class="st41" d="M1946.8,2178.1c0.5-0.3,1-0.3,1.5,0l12.1,7c0.4,0.3,0.7,0.7,0.7,1.3v14c0,0.6-0.3,1-0.7,1.3l-12.1,7
		c-0.5,0.3-1,0.3-1.5,0l-12.1-7c-0.4-0.3-0.7-0.7-0.7-1.3v-14c0-0.6,0.3-1,0.7-1.3L1946.8,2178.1z"/>
	<g transform="translate(134.068 70.501)">
		<g>
			
				<linearGradient id="a_2_" gradientUnits="userSpaceOnUse" x1="814.9692" y1="1565.7068" x2="814.4484" y2="1564.7743" gradientTransform="matrix(108.989 0 0 -124.1841 -87329.2188 196506.9375)">
				<stop  offset="0" style="stop-color:#41873F"/>
				<stop  offset="0.3288" style="stop-color:#418B3D"/>
				<stop  offset="0.6352" style="stop-color:#419637"/>
				<stop  offset="0.9319" style="stop-color:#3FA92D"/>
				<stop  offset="1" style="stop-color:#3FAE2A"/>
			</linearGradient>
			<path id="a_1_" class="st43" d="M1471.7,2044.1c-2.4-1.3-5.2-1.3-7.6,0l-62.8,36.2c-2.4,1.3-3.7,3.9-3.7,6.6v72.6
				c0,2.7,1.5,5.2,3.7,6.6l62.8,36.2c2.4,1.3,5.2,1.3,7.6,0l62.8-36.2c2.4-1.3,3.7-3.9,3.7-6.6v-72.6c0-2.7-1.5-5.2-3.7-6.6
				L1471.7,2044.1z"/>
		</g>
		<defs>
			<filter id="Adobe_OpacityMaskFilter" filterUnits="userSpaceOnUse" x="1397" y="2043.1" width="141.7" height="160.4">
				<feColorMatrix  type="matrix" values="1 0 0 0 0  0 1 0 0 0  0 0 1 0 0  0 0 0 1 0"/>
			</filter>
		</defs>
		<mask maskUnits="userSpaceOnUse" x="1397" y="2043.1" width="141.7" height="160.4" id="c_4_">
			<g class="st44">
				<path id="a_5_" class="st2" d="M1471.7,2044.1c-2.4-1.3-5.2-1.3-7.6,0l-62.8,36.2c-2.4,1.3-3.7,3.9-3.7,6.6v72.6
					c0,2.7,1.5,5.2,3.7,6.6l62.8,36.2c2.4,1.3,5.2,1.3,7.6,0l62.8-36.2c2.4-1.3,3.7-3.9,3.7-6.6v-72.6c0-2.7-1.5-5.2-3.7-6.6
					L1471.7,2044.1z"/>
			</g>
		</mask>
		<g class="st45">
			<path class="st46" d="M1464,2044.1l-62.9,36.2c-2.4,1.3-4,3.9-4,6.6v72.6c0,1.8,0.7,3.4,1.9,4.8l70.7-121.1
				C1467.8,2042.9,1465.8,2043.1,1464,2044.1L1464,2044.1z M1470.1,2203.1c0.6-0.1,1.2-0.4,1.8-0.7l62.9-36.2
				c2.4-1.3,3.9-3.9,3.9-6.6v-72.6c0-1.9-0.9-3.9-2.2-5.2L1470.1,2203.1L1470.1,2203.1z"/>
			
				<linearGradient id="SVGID_3_" gradientUnits="userSpaceOnUse" x1="814.7502" y1="1565.2161" x2="816.2465" y2="1566.1641" gradientTransform="matrix(106.446 0 0 -124.1332 -85268.5234 196426.9531)">
				<stop  offset="0.1376" style="stop-color:#41873F"/>
				<stop  offset="0.4032" style="stop-color:#54A044"/>
				<stop  offset="0.7136" style="stop-color:#66B848"/>
				<stop  offset="0.9081" style="stop-color:#6CC04A"/>
			</linearGradient>
			<path class="st47" d="M1534.6,2080.4l-63.1-36.2c-0.6-0.3-1.3-0.6-1.9-0.7l-70.7,121.1c0.6,0.7,1.3,1.3,2.1,1.8l63.1,36.2
				c1.8,1,3.9,1.3,5.8,0.7l66.4-121.4C1535.8,2081.2,1535.2,2080.8,1534.6,2080.4L1534.6,2080.4z"/>
		</g>
		<defs>
			<filter id="Adobe_OpacityMaskFilter_1_" filterUnits="userSpaceOnUse" x="1397" y="2030.8" width="143.6" height="174.6">
				<feColorMatrix  type="matrix" values="1 0 0 0 0  0 1 0 0 0  0 0 1 0 0  0 0 0 1 0"/>
			</filter>
		</defs>
		<mask maskUnits="userSpaceOnUse" x="1397" y="2030.8" width="143.6" height="174.6" id="c_3_">
			<g class="st48">
				<path id="a_4_" class="st2" d="M1471.7,2044.1c-2.4-1.3-5.2-1.3-7.6,0l-62.8,36.2c-2.4,1.3-3.7,3.9-3.7,6.6v72.6
					c0,2.7,1.5,5.2,3.7,6.6l62.8,36.2c2.4,1.3,5.2,1.3,7.6,0l62.8-36.2c2.4-1.3,3.7-3.9,3.7-6.6v-72.6c0-2.7-1.5-5.2-3.7-6.6
					L1471.7,2044.1z"/>
			</g>
		</mask>
		<g class="st49">
			<path class="st46" d="M1538.7,2159.5v-72.6c0-2.7-1.6-5.2-4-6.6l-63.1-36.2c-0.7-0.5-1.5-0.8-2.4-0.9l69,118
				C1538.5,2160.7,1538.7,2160.1,1538.7,2159.5L1538.7,2159.5z M1401,2080.4c-2.4,1.3-4,3.9-4,6.6v72.6c0,2.7,1.8,5.2,4,6.6
				l63.1,36.2c1.5,0.9,3.1,1.2,4.9,0.9l-67.6-123L1401,2080.4L1401,2080.4z"/>
			
				<linearGradient id="SVGID_4_" gradientUnits="userSpaceOnUse" x1="1258.8663" y1="-1840.9393" x2="1384.5587" y2="-1840.9393" gradientTransform="matrix(0.924 0 0 -0.347 245.321 1392.2611)">
				<stop  offset="9.192000e-02" style="stop-color:#6CC04A"/>
				<stop  offset="0.2864" style="stop-color:#66B848"/>
				<stop  offset="0.5968" style="stop-color:#54A044"/>
				<stop  offset="0.8624" style="stop-color:#41873F"/>
			</linearGradient>
			<path class="st50" d="M1462,2030.8l-0.9,0.4h1.2L1462,2030.8z"/>
			
				<linearGradient id="SVGID_5_" gradientUnits="userSpaceOnUse" x1="814.1449" y1="1565.2909" x2="815.5111" y2="1565.2909" gradientTransform="matrix(106.331 0 0 -124.2332 -85173.5313 196584.3125)">
				<stop  offset="9.192000e-02" style="stop-color:#6CC04A"/>
				<stop  offset="0.2864" style="stop-color:#66B848"/>
				<stop  offset="0.5968" style="stop-color:#54A044"/>
				<stop  offset="0.8624" style="stop-color:#41873F"/>
			</linearGradient>
			<path class="st51" d="M1534.8,2166.1c1.8-1,3.1-2.8,3.7-4.8l-69.2-118.1c-1.8-0.3-3.7-0.1-5.4,0.9l-62.6,36.1l67.6,123.2
				c1-0.2,1.9-0.5,2.8-0.9L1534.8,2166.1L1534.8,2166.1z"/>
			
				<linearGradient id="SVGID_6_" gradientUnits="userSpaceOnUse" x1="2082.9141" y1="72.6618" x2="2208.6067" y2="72.6618" gradientTransform="matrix(0.347 0 0 -0.809 773.9065 2223.4636)">
				<stop  offset="9.192000e-02" style="stop-color:#6CC04A"/>
				<stop  offset="0.2864" style="stop-color:#66B848"/>
				<stop  offset="0.5968" style="stop-color:#54A044"/>
				<stop  offset="0.8624" style="stop-color:#41873F"/>
			</linearGradient>
			<path class="st52" d="M1540.6,2164.9l-0.4-0.7v1L1540.6,2164.9L1540.6,2164.9z"/>
			
				<linearGradient id="SVGID_7_" gradientUnits="userSpaceOnUse" x1="817.1209" y1="1539.4696" x2="819.7615" y2="1539.4696" gradientTransform="matrix(55.014 0 0 -34.326 -43557.7813 55027.1484)">
				<stop  offset="9.192000e-02" style="stop-color:#6CC04A"/>
				<stop  offset="0.2864" style="stop-color:#66B848"/>
				<stop  offset="0.5968" style="stop-color:#54A044"/>
				<stop  offset="0.8624" style="stop-color:#41873F"/>
			</linearGradient>
			<path class="st53" d="M1534.8,2166.1l-62.9,36.2c-0.9,0.5-1.8,0.8-2.8,0.9l1.2,2.2l69.8-40.4v-0.9l-1.8-3
				C1537.9,2163.3,1536.6,2165.1,1534.8,2166.1z"/>
			
				<linearGradient id="SVGID_8_" gradientUnits="userSpaceOnUse" x1="820.1439" y1="1542.8387" x2="818.5154" y2="1537.5143" gradientTransform="matrix(55.014 0 0 -34.326 -43557.7813 55027.1484)">
				<stop  offset="0" style="stop-color:#41873F"/>
				<stop  offset="0.3288" style="stop-color:#418B3D"/>
				<stop  offset="0.6352" style="stop-color:#419637"/>
				<stop  offset="0.9319" style="stop-color:#3FA92D"/>
				<stop  offset="1" style="stop-color:#3FAE2A"/>
			</linearGradient>
			<path class="st54" d="M1534.8,2166.1l-62.9,36.2c-0.9,0.5-1.8,0.8-2.8,0.9l1.2,2.2l69.8-40.4v-0.9l-1.8-3
				C1537.9,2163.3,1536.6,2165.1,1534.8,2166.1z"/>
		</g>
	</g>
</g>
<g>
	<path class="st55" d="M617.6,1518c0-38.6-48.3-75.1-122.4-97.8c17.1-75.5,9.5-135.6-24-154.8c-7.7-4.5-16.7-6.6-26.6-6.6v26.5
		c5.5,0,9.9,1.1,13.5,3.1c16.1,9.3,23.1,44.5,17.7,89.9c-1.3,11.2-3.4,22.9-6.1,34.9c-23.3-5.7-48.7-10.1-75.4-12.9
		c-16-22-32.6-41.9-49.4-59.3c38.7-36,75-55.7,99.7-55.7v-26.5c-32.6,0-75.4,23.3-118.6,63.6c-43.2-40.1-85.9-63.1-118.6-63.1v26.5
		c24.6,0,61,19.6,99.7,55.3c-16.6,17.4-33.2,37.3-49,59.2c-26.8,2.8-52.2,7.2-75.5,13.1c-2.7-11.9-4.7-23.4-6.2-34.4
		c-5.6-45.3,1.3-80.6,17.3-90c3.6-2.1,8.2-3.1,13.7-3.1v-26.5c-10,0-19,2.1-26.8,6.6c-33.4,19.2-40.8,79.2-23.6,154.4
		c-73.8,22.8-121.9,59.2-121.9,97.7c0,38.6,48.3,75.1,122.4,97.8c-17.1,75.5-9.5,135.6,24,154.8c7.7,4.5,16.7,6.6,26.7,6.6
		c32.6,0,75.4-23.3,118.6-63.6c43.2,40.1,85.9,63.1,118.6,63.1c10,0,19-2.1,26.8-6.6c33.4-19.2,40.8-79.2,23.6-154.4
		C569.5,1593,617.6,1556.4,617.6,1518L617.6,1518z M463,1438.8c-4.4,15.3-9.9,31.1-16,46.9c-4.9-9.5-10-19-15.5-28.5
		c-5.5-9.5-11.3-18.8-17.1-27.8C431.2,1431.9,447.5,1435,463,1438.8L463,1438.8z M408.7,1565.2c-9.3,16-18.8,31.2-28.6,45.3
		c-17.7,1.5-35.6,2.4-53.7,2.4c-17.9,0-35.8-0.8-53.4-2.3c-9.9-14.1-19.5-29.2-28.7-45.1c-9-15.5-17.2-31.3-24.7-47.2
		c7.4-15.9,15.7-31.8,24.6-47.4c9.3-16,18.8-31.2,28.6-45.3c17.7-1.5,35.6-2.4,53.7-2.4c17.9,0,35.8,0.8,53.4,2.3
		c9.9,14.1,19.5,29.2,28.7,45.1c9,15.5,17.2,31.3,24.7,47.2C425.8,1533.8,417.6,1549.7,408.7,1565.2L408.7,1565.2z M447,1549.8
		c6.4,15.9,11.9,31.8,16.4,47.2c-15.5,3.8-31.9,7-48.9,9.5c5.8-9.1,11.6-18.5,17.1-28.1C437,1568.9,442.1,1559.3,447,1549.8
		L447,1549.8z M326.7,1676.4c-11-11.4-22.1-24.1-33-38c10.7,0.5,21.6,0.8,32.6,0.8c11.2,0,22.2-0.2,33-0.8
		C348.6,1652.3,337.6,1665,326.7,1676.4z M238.3,1606.5c-16.9-2.5-33.1-5.6-48.7-9.4c4.4-15.3,9.9-31.1,16-46.9
		c4.9,9.5,10,19,15.5,28.5C226.8,1588.3,232.5,1597.5,238.3,1606.5z M326.1,1359.5c11,11.4,22.1,24.1,33,38
		c-10.7-0.5-21.6-0.8-32.6-0.8c-11.2,0-22.2,0.2-33,0.8C304.1,1383.6,315.1,1370.9,326.1,1359.5z M238.2,1429.4
		c-5.8,9.1-11.6,18.5-17.1,28.1c-5.5,9.5-10.6,19-15.4,28.5c-6.4-15.9-11.9-31.8-16.4-47.2C204.9,1435.1,221.3,1431.9,238.2,1429.4
		L238.2,1429.4z M130.8,1578c-42-17.9-69.2-41.4-69.2-60.1c0-18.6,27.2-42.3,69.2-60.1c10.2-4.4,21.4-8.3,32.9-12
		c6.8,23.3,15.7,47.5,26.7,72.3c-10.9,24.7-19.7,48.8-26.4,71.9C152.3,1586.5,141.1,1582.4,130.8,1578L130.8,1578z M194.7,1747.7
		c-16.1-9.3-23.1-44.5-17.7-89.9c1.3-11.2,3.4-22.9,6.1-34.9c23.3,5.7,48.7,10.1,75.4,12.9c16,22,32.6,41.9,49.4,59.3
		c-38.7,36-75,55.7-99.7,55.7C202.7,1750.7,198.2,1749.7,194.7,1747.7L194.7,1747.7z M476.2,1657.2c5.6,45.3-1.3,80.6-17.3,90
		c-3.6,2.1-8.2,3.1-13.7,3.1c-24.6,0-61-19.6-99.7-55.3c16.6-17.4,33.2-37.3,49-59.2c26.8-2.8,52.2-7.2,75.5-13.1
		C472.8,1634.7,474.9,1646.2,476.2,1657.2z M521.9,1578c-10.2,4.4-21.4,8.3-32.9,12c-6.8-23.3-15.7-47.5-26.7-72.3
		c10.9-24.7,19.7-48.8,26.4-71.9c11.8,3.7,22.9,7.7,33.4,12.1c42,17.9,69.2,41.4,69.2,60.1C591.1,1536.6,563.9,1560.2,521.9,1578
		L521.9,1578z"/>
	<circle class="st55" cx="326.3" cy="1518" r="54.2"/>
</g>
<path class="st56" d="M1894.2,1168.8c0-18.6-15.1-33.7-33.7-33.7c-1.2,0-2.4,0.1-3.6,0.2l46.4-136.7h-197l46.3,136.6
	c-0.7,0-1.4-0.1-2-0.1c-18.6,0-33.7,15.1-33.7,33.7c0,15.1,9.9,27.8,23.5,32.2c-7.2,12.5-16.2,23.7-26.5,33.4
	c-14,13.2-30,23.2-47.3,29.4c-20.6-10.6-30.3-34.1-21.6-54.8c1-2.3,2-4.7,3-7.1c14.9-3.5,26.1-16.9,26.1-32.9
	c0-18.6-15.1-33.7-33.8-33.7s-33.7,15.1-33.7,33.7c0,11.4,5.7,21.5,14.4,27.6c-8.3,19-20.6,38.9-24.5,62c-4.6,27.7,0,57,23.9,73.6
	c55.7,38.6,116.2-23.9,179.9-39.6c23.1-5.7,48.5-4.8,68.8-16.6c15.3-8.9,25.4-23.5,28.2-40c2.8-16.3-1.3-32.5-10.8-45.6
	C1891.5,1184.4,1894.2,1176.7,1894.2,1168.8"/>
<path class="st2" d="M1889,1234.7c-2.5,14.3-11.3,26.8-24.2,34.3c-12,7-26.5,9.1-41.7,11.3c-8.2,1.2-16.6,2.4-24.9,4.4
	c-21.9,5.4-43,15.9-63.5,26.1c-41,20.4-76.4,37.9-109.7,14.8c-24.4-16.9-23.3-48.3-20.5-65.4c2.6-15.9,9.8-30.6,16.7-44.7
	c1.2-2.4,2.3-4.8,3.5-7.2c3.5,1.4,7.1,2.3,10.8,2.7c-7,23.2,4,48.4,27.2,60.3l3.2,1.6l3.4-1.2c18.3-6.5,35.2-17,50.2-31.1
	c9.7-9.1,18-19.2,24.9-30c2.1,0.3,4.2,0.5,6.3,0.5c21.3,0,38.9-15.9,41.6-36.4c8.7-0.3,18-0.3,26.7,0c2.7,20.6,20.3,36.4,41.6,36.4
	c8.9,0,17.1-2.8,23.9-7.5C1889.1,1213,1890.9,1223.8,1889,1234.7L1889,1234.7z M1640.2,1143.6c14.1,0,25.5,11.5,25.5,25.5
	c0,5.1-1.5,9.8-4,13.7c-4.2,6.6-11.5,11.1-19.7,11.7c-0.6,0-1.2,0.1-1.8,0.1c-3.1,0-6.1-0.6-8.9-1.6c-5.6-2.1-10.3-6.1-13.2-11.3
	c-2.2-3.8-3.4-8.2-3.4-12.6C1614.6,1155,1626.1,1143.6,1640.2,1143.6L1640.2,1143.6z M1725,1168.8c0-12.8,9.5-23.4,21.7-25.2
	c1.2-0.2,2.5-0.3,3.8-0.3c8.2,0,15.5,3.9,20.1,9.9c1.2,1.5,2.2,3.1,3,4.8c1.6,3.4,2.4,7.1,2.4,10.8c0,2-0.2,4-0.7,5.9
	c-2.5,10.4-11.4,18.4-22.2,19.5c-0.8,0.1-1.7,0.1-2.6,0.1c-4.9,0-9.7-1.4-13.8-4.1C1729.7,1185.7,1725,1177.8,1725,1168.8
	L1725,1168.8z M1831.5,1138.5c-5.5,5.3-9.5,12-11.5,19.4c-9.6-0.4-19.2-0.4-28.9,0c-2.2-8-6.6-15.1-12.7-20.4l26.4-53.4
	L1831.5,1138.5z M1717.8,1006.8h174l-41.1,121.2c-1.8,0.4-3.5,1-5.2,1.6l-40.6-82.8l-40.7,82.3c-1.8-0.6-3.6-1.1-5.4-1.5
	L1717.8,1006.8z M1886,1168.8c0,2.6-0.4,5-1.1,7.4c-1.7,5.5-5.1,10.3-9.8,13.5c-4.3,3-9.4,4.6-14.6,4.6c-11.8,0-21.7-8-24.6-18.9
	c-0.6-2.2-0.9-4.4-0.9-6.6c0-3.5,0.7-6.8,2-9.8c0.7-1.6,1.5-3,2.4-4.4c4.6-6.8,12.3-11.2,21.1-11.2c0.8,0,1.6,0,2.4,0.1
	C1875.8,1144.7,1886,1155.6,1886,1168.8L1886,1168.8z M1902.5,1168.8c0-20.5-14.8-37.6-34.2-41.3l46.5-137.3h-220l46.6,137.6
	c-18.8,4.2-32.9,21-32.9,41c0,15,7.9,28.2,19.8,35.7c-5.7,8.5-12.5,16.6-20.3,23.9c-12.3,11.6-26.1,20.5-40.9,26.3
	c-14.9-9.4-21.2-27.1-14.7-42.5l0.5-1.2l1-2.3c16.4-5.7,28.2-21.3,28.2-39.7c0-23.2-18.8-42-42-42s-42,18.8-42,42
	c0,11.7,4.8,22.3,12.5,29.9c-1.4,3.1-2.9,6.1-4.4,9.1c-7.1,14.5-15.1,31-18.1,49.3c-6,36.3,3.7,65.3,27.3,81.7
	c14.3,9.9,28.9,13.8,43.6,13.8c27.6,0,55.5-13.9,82.9-27.4c19.7-9.8,40-19.9,60.1-24.8c7.5-1.8,15.2-3,23.3-4.1
	c16.2-2.3,32.8-4.7,47.7-13.3c17.1-9.9,28.9-26.6,32.2-45.7c2.8-16.4-0.6-32.8-8.9-46.8C1900.4,1184.1,1902.5,1176.5,1902.5,1168.8
	L1902.5,1168.8z"/>
<path class="st57" d="M824.3,1903.6c-53.6-73.6-154.3-94.5-232.8-48.4l-132.6,82c-35.9,21.7-60.9,57.6-68.7,98.9
	c-6.3,34.1-0.7,69.3,15.8,99.8c-11.3,16.6-19.1,35.5-22.7,55.3c-7.6,41.8,2.4,84.8,27.6,119c53.6,73.6,154.3,94.5,232.8,48.5
	l132.6-82c35.9-21.7,60.9-57.6,68.7-98.9c6.3-34.1,0.8-69.4-15.8-99.9c11.3-16.6,19.1-35.5,22.7-55.3
	C859.6,1980.8,849.6,1937.7,824.3,1903.6"/>
<path class="st2" d="M578.6,2316.9c-42.4,10.9-87.2-5.2-112.9-40.6c-15.2-20.5-21.3-46.4-16.7-71.6c0.8-4.1,1.8-8.1,3.1-12l2.5-7.4
	l6.8,4.7c15.8,11.2,33.3,19.7,51.9,25.1l4.8,1.4l-0.5,4.7c-0.6,6.8,1.3,13.6,5.3,19.1c7.7,10.9,21.4,15.9,34.4,12.6
	c2.9-0.7,5.6-1.9,8.1-3.5l132.2-82c6.5-3.9,11-10.5,12.5-17.9c1.4-7.5-0.3-15.3-4.8-21.5c-7.8-10.7-21.3-15.5-34.1-12.3
	c-2.9,0.7-5.6,1.9-8.2,3.5l-50.8,31.3c-8.3,5.2-17.4,9-26.9,11.5c-42.5,10.9-87.3-5.2-113-40.7c-15.1-20.6-21.1-46.5-16.4-71.6
	c4.7-24.7,19.7-46.3,41.2-59.4l132.4-82c8.3-5.2,17.4-9,26.9-11.5c42.5-10.9,87.3,5.2,113.1,40.6c15.2,20.5,21.3,46.4,16.7,71.6
	c-0.7,4.1-1.8,8.1-3.1,12l-2.5,7.4l-6.8-4.7c-15.8-11.2-33.3-19.7-51.9-25.1l-4.8-1.5l0.5-4.7c0.6-6.8-1.3-13.6-5.4-19.1
	c-7.7-10.7-21.3-15.6-34-12.3c-2.9,0.7-5.6,1.9-8.1,3.5l-132.7,81.7c-6.5,3.9-11,10.4-12.5,17.9c-1.5,7.5,0.3,15.4,4.8,21.6
	c7.8,10.7,21.3,15.5,34.1,12.3c2.9-0.7,5.6-1.9,8.2-3.5l50.6-31.3c8.3-5.2,17.4-9,26.9-11.5c42.5-10.9,87.3,5.2,113.1,40.6
	c15.2,20.5,21.2,46.4,16.6,71.6c-4.7,24.8-19.7,46.4-41.2,59.5l-132.4,82c-8.3,5.2-17.4,9-26.9,11.5"/>
<rect x="1090.8" y="1410.1" class="st58" width="505.6" height="498.3"/>
<path d="M1430.5,1799.4c10.2,16.4,23.4,28.4,46.9,28.4c19.7,0,32.3-9.7,32.3-23.1c0-16-12.9-21.8-34.6-31.1l-11.9-5.1
	c-34.3-14.4-57.1-32.5-57.1-70.5c0-35.1,27.1-61.9,69.5-61.9c30.2,0,51.9,10.4,67.6,37.5l-37,23.4c-8.1-14.4-17-20-30.6-20
	c-13.9,0-22.8,8.7-22.8,20c0,14,8.8,19.8,29.3,28.4l11.9,5.1c40.4,17.1,63.2,34.5,63.2,73.6c0,42.2-33.6,65.3-78.8,65.3
	c-44.2,0-72.6-20.7-86.6-47.9L1430.5,1799.4z M1262.6,1803.5c7.5,13.1,14.2,24.1,30.6,24.1c15.6,0,25.5-6,25.5-29.4v-159.2h47.6
	v159.9c0,48.5-28.9,70.5-70.9,70.5c-38.1,0-60.1-19.4-71.3-42.8L1262.6,1803.5z"/>
<path class="st2" d="M2145.2,1430.4l243.3,137.6v275.3l-243.3,137.6l-243.3-137.6V1568L2145.2,1430.4z"/>
<path class="st59" d="M2345,1833.8l-191.8,108.5v-84.5l119.5-65.7L2345,1833.8z M2358.2,1821.9V1595l-70.2,40.5v145.9L2358.2,1821.9
	L2358.2,1821.9z M1944.5,1833.8l191.8,108.5v-84.5l-119.5-65.7L1944.5,1833.8L1944.5,1833.8z M1931.4,1821.9V1595l70.2,40.5v145.9
	L1931.4,1821.9L1931.4,1821.9z M1939.6,1580.3l196.7-111.3v81.7l-126,69.3l-1,0.6L1939.6,1580.3z M2349.9,1580.3L2153.2,1469v81.7
	l126,69.3l1,0.6L2349.9,1580.3z"/>
<path class="st60" d="M2136.4,1838.6l-117.9-64.8v-128.5l117.9,68.1V1838.6 M2153.2,1838.6l117.9-64.8v-128.5l-117.9,68.1V1838.6
	 M2026.4,1630.4l118.4-65.1l118.4,65.1l-118.4,68.4L2026.4,1630.4"/>
<path class="st61" d="M1609,116.2h234.5c35.5,0,64.3,28.7,64.3,64.3v225.4c0,35.5-28.7,64.3-64.3,64.3H1609
	c-35.5,0-64.3-28.7-64.3-64.3V180.5C1544.7,144.9,1573.4,116.2,1609,116.2z"/>
<path class="st62" d="M1720.1,327.9h-56.3l-11.5,35.5c-0.3,1.4-1.5,2.3-2.9,2.1h-28.4c-1.7,0-2.1-0.9-1.7-2.7l48.7-140.2
	c0.5-1.5,0.9-3.2,1.5-5c0.6-3.2,0.9-6.5,0.9-9.8c-0.2-0.8,0.5-1.5,1.2-1.7h39.2c1.2,0,1.8,0.5,2,1.2l55.2,155.8
	c0.5,1.7,0,2.4-1.5,2.4H1735c-1.1,0.2-2.1-0.6-2.4-1.7L1720.1,327.9z M1672.6,297.2h38.4c-0.9-3.2-2.1-7-3.5-10.9
	c-1.4-4.1-2.7-8.5-4.1-13c-1.5-4.7-2.9-9.2-4.4-13.9c-1.5-4.7-2.9-9.1-4.1-13.5c-1.2-4.2-2.3-8.2-3.3-11.8h-0.3
	c-1.4,6.5-3,13-5.1,19.5c-2.3,7.3-4.5,14.8-7,22.4C1677.2,283.8,1674.9,290.9,1672.6,297.2z M1801.8,232.6c-5,0.2-9.8-1.8-13.5-5.3
	c-3.5-3.8-5.3-8.8-5.1-13.9c-0.2-5.1,1.8-10,5.4-13.5c3.6-3.5,8.5-5.3,13.5-5.3c5.9,0,10.4,1.8,13.8,5.3c3.3,3.6,5.1,8.5,5,13.5
	c0.2,5.1-1.7,10.1-5.3,13.9C1812.1,231,1807,232.9,1801.8,232.6L1801.8,232.6z M1784.9,363.9V247.5c0-1.5,0.6-2.1,2-2.1h30
	c1.4,0,2,0.8,2,2.1v116.5c0,1.7-0.6,2.4-2,2.4h-29.7C1785.6,366.4,1784.9,365.5,1784.9,363.9z"/>
</svg>
